<svg width="1939" height="1589" viewBox="0 0 1939 1589" fill="none" xmlns="http://www.w3.org/2000/svg">
<rect width="1939" height="1589" fill="#1C84BC"/>
<g filter="url(#filter0_d)">
<path d="M1884.83 1386.23C1891.11 1396.8 1887.63 1410.47 1877.06 1416.75C1866.49 1423.03 1852.83 1419.55 1846.55 1408.98C1840.26 1398.41 1843.74 1384.75 1854.31 1378.47C1864.88 1372.18 1878.55 1375.66 1884.83 1386.23ZM1853.46 1404.88C1857.47 1411.63 1866.2 1413.85 1872.95 1409.84C1879.71 1405.82 1881.93 1397.09 1877.92 1390.34C1873.9 1383.59 1865.17 1381.36 1858.42 1385.38C1851.66 1389.39 1849.44 1398.12 1853.46 1404.88Z" fill="black" fill-opacity="0.5"/>
<path d="M1877.82 1390.94C1884.1 1401.51 1880.63 1415.18 1870.05 1421.46C1859.48 1427.74 1845.82 1424.26 1839.54 1413.69C1833.26 1403.12 1836.73 1389.46 1847.3 1383.17C1857.88 1376.89 1871.54 1380.37 1877.82 1390.94ZM1846.45 1409.58C1850.46 1416.34 1859.19 1418.56 1865.95 1414.55C1872.7 1410.53 1874.92 1401.8 1870.91 1395.05C1866.9 1388.29 1858.17 1386.07 1851.41 1390.09C1844.66 1394.1 1842.44 1402.83 1846.45 1409.58Z" fill="black"/>
<path d="M1656.01 1493.93L1867.81 1369.34" stroke="black" stroke-width="5" stroke-linecap="round" stroke-linejoin="round"/>
<path d="M1686.9 1503.93C1693.06 1514.31 1689.49 1527.81 1678.92 1534.09C1668.35 1540.38 1654.78 1537.06 1648.61 1526.68C1642.44 1516.3 1646.01 1502.79 1656.59 1496.51C1667.16 1490.23 1680.73 1493.55 1686.9 1503.93ZM1655.52 1522.57C1659.46 1529.2 1668.14 1531.32 1674.89 1527.31C1681.64 1523.3 1683.92 1514.67 1679.98 1508.03C1676.04 1501.4 1667.37 1499.28 1660.62 1503.29C1653.86 1507.31 1651.58 1515.94 1655.52 1522.57Z" fill="black"/>
<path d="M1695.49 1498.27C1701.66 1508.65 1698.09 1522.16 1687.52 1528.44C1676.95 1534.72 1663.38 1531.4 1657.21 1521.02C1651.04 1510.64 1654.61 1497.14 1665.19 1490.85C1675.76 1484.57 1689.33 1487.89 1695.49 1498.27ZM1664.12 1516.91C1668.06 1523.55 1676.73 1525.67 1683.49 1521.65C1690.24 1517.64 1692.52 1509.01 1688.58 1502.38C1684.64 1495.75 1675.97 1493.63 1669.22 1497.64C1662.46 1501.65 1660.18 1510.28 1664.12 1516.91Z" fill="black" fill-opacity="0.47"/>
<path d="M1686.9 1503.93C1693.06 1514.31 1689.49 1527.81 1678.92 1534.09C1668.35 1540.38 1654.78 1537.06 1648.61 1526.68C1642.44 1516.3 1646.01 1502.79 1656.59 1496.51C1667.16 1490.23 1680.73 1493.55 1686.9 1503.93ZM1655.52 1522.57C1659.46 1529.2 1668.14 1531.32 1674.89 1527.31C1681.64 1523.3 1683.92 1514.67 1679.98 1508.03C1676.04 1501.4 1667.37 1499.28 1660.62 1503.29C1653.86 1507.31 1651.58 1515.94 1655.52 1522.57Z" fill="black"/>
<path d="M1683.53 1477.66L1676.42 1465.69C1674.91 1463.15 1675.91 1459.87 1678.58 1458.61L1867.71 1369.17" stroke="black" stroke-width="5" stroke-linecap="round" stroke-linejoin="round"/>
<path d="M1795.5 1247.65L1562.11 1360.51L1662.63 1426.05L1832.64 1310.16L1795.5 1247.65Z" fill="#145F88" stroke="black"/>
<path d="M1654.75 1421.31L1828.83 1303.74" stroke="black" stroke-width="3"/>
<path d="M1563.51 1359.68L1793.44 1247.35M1809.23 1273.94L1604.94 1389.83" stroke="black" stroke-width="3"/>
<path d="M1656.13 1494.89L1645.84 1477.57L1661.81 1426.97M1661.81 1426.97L1549.59 1352.03M1661.81 1426.97L1833.15 1311.02L1788.3 1235.55L1549.59 1352.03M1509 1344.04L1530 1338.95L1549.59 1352.03" stroke="black" stroke-width="5" stroke-linecap="round" stroke-linejoin="round"/>
<path d="M1668.1 1515.09L1656.11 1494.91L1672.12 1485.4L1668.1 1515.09Z" fill="black" stroke="black"/>
<path d="M1858.54 1402.87L1846.13 1381.99L1862.14 1372.48L1858.54 1402.87Z" fill="black" stroke="black" stroke-linecap="round" stroke-linejoin="round"/>
<mask id="path-14-inside-1" fill="white">
<path d="M1725.36 1438.69C1720.19 1441.76 1713.97 1442.58 1708.06 1440.96C1702.16 1439.35 1697.06 1435.44 1693.87 1430.08C1690.69 1424.73 1689.69 1418.38 1691.1 1412.42C1692.51 1406.46 1696.2 1401.39 1701.37 1398.32L1703.27 1401.52C1698.92 1404.1 1695.82 1408.37 1694.63 1413.38C1693.45 1418.4 1694.29 1423.74 1696.97 1428.24C1699.64 1432.75 1703.94 1436.04 1708.91 1437.4C1713.87 1438.76 1719.11 1438.07 1723.45 1435.48L1725.36 1438.69Z"/>
</mask>
<path d="M1725.36 1438.69C1720.19 1441.76 1713.97 1442.58 1708.06 1440.96C1702.16 1439.35 1697.06 1435.44 1693.87 1430.08C1690.69 1424.73 1689.69 1418.38 1691.1 1412.42C1692.51 1406.46 1696.2 1401.39 1701.37 1398.32L1703.27 1401.52C1698.92 1404.1 1695.82 1408.37 1694.63 1413.38C1693.45 1418.4 1694.29 1423.74 1696.97 1428.24C1699.64 1432.75 1703.94 1436.04 1708.91 1437.4C1713.87 1438.76 1719.11 1438.07 1723.45 1435.48L1725.36 1438.69Z" fill="black" stroke="black" stroke-width="16" mask="url(#path-14-inside-1)"/>
<path d="M1687.96 1299.14L1730.28 1370.37M1747.64 1270.14L1779.19 1336.77M1618.19 1332.84L1691.51 1396.64" stroke="black" stroke-width="2"/>
<path d="M1584.55 1374.49L1801.24 1258.91" stroke="black" stroke-width="2"/>
<path d="M1662.14 1427.52L1657.42 1467.55L1667.64 1484.74" stroke="black" stroke-width="5"/>
<path d="M1633.01 1406.91L1818.05 1290.36" stroke="black" stroke-width="2"/>
</g>
<g filter="url(#filter1_d)">
<path d="M992.688 1447.1C988.53 1462.62 997.74 1478.58 1013.26 1482.74C1028.78 1486.89 1044.74 1477.68 1048.89 1462.16C1053.05 1446.64 1043.84 1430.69 1028.32 1426.53C1012.8 1422.37 996.847 1431.58 992.688 1447.1ZM1038.75 1459.44C1036.09 1469.36 1025.9 1475.25 1015.98 1472.59C1006.06 1469.93 1000.18 1459.74 1002.84 1449.82C1005.49 1439.91 1015.69 1434.02 1025.6 1436.68C1035.52 1439.33 1041.4 1449.53 1038.75 1459.44Z" fill="black" fill-opacity="0.5"/>
<path d="M1003.17 1450.54C999.01 1466.06 1008.22 1482.02 1023.74 1486.18C1039.26 1490.34 1055.22 1481.13 1059.37 1465.6C1063.53 1450.08 1054.32 1434.13 1038.8 1429.97C1023.28 1425.81 1007.33 1435.02 1003.17 1450.54ZM1049.23 1462.89C1046.57 1472.8 1036.38 1478.69 1026.46 1476.03C1016.54 1473.37 1010.66 1463.18 1013.32 1453.26C1015.97 1443.35 1026.17 1437.46 1036.08 1440.12C1046 1442.78 1051.88 1452.97 1049.23 1462.89Z" fill="black"/>
<path d="M1318.62 1501.55L1008.11 1419.83" stroke="black" stroke-width="5" stroke-linecap="round" stroke-linejoin="round"/>
<path d="M1283.31 1525.06C1279.23 1540.3 1288.5 1556.02 1304.02 1560.18C1319.54 1564.34 1335.44 1555.36 1339.52 1540.12C1343.6 1524.88 1334.33 1509.16 1318.81 1505C1303.29 1500.84 1287.4 1509.82 1283.31 1525.06ZM1329.37 1537.4C1326.76 1547.14 1316.61 1552.88 1306.69 1550.22C1296.78 1547.56 1290.85 1537.52 1293.46 1527.78C1296.07 1518.04 1306.22 1512.3 1316.14 1514.96C1326.06 1517.62 1331.98 1527.67 1329.37 1537.4Z" fill="black"/>
<path d="M1270.5 1520.99C1266.41 1536.23 1275.68 1551.96 1291.2 1556.12C1306.73 1560.27 1322.62 1551.29 1326.7 1536.05C1330.78 1520.82 1321.51 1505.09 1305.99 1500.93C1290.47 1496.77 1274.58 1505.75 1270.5 1520.99ZM1316.55 1533.33C1313.94 1543.07 1303.79 1548.81 1293.87 1546.15C1283.96 1543.5 1278.03 1533.45 1280.64 1523.71C1283.25 1513.98 1293.41 1508.24 1303.32 1510.89C1313.24 1513.55 1319.16 1523.6 1316.55 1533.33Z" fill="black" fill-opacity="0.47"/>
<path d="M1283.31 1525.06C1279.23 1540.3 1288.5 1556.02 1304.02 1560.18C1319.54 1564.34 1335.44 1555.36 1339.52 1540.12C1343.6 1524.88 1334.33 1509.16 1318.81 1505C1303.29 1500.84 1287.4 1509.82 1283.31 1525.06ZM1329.37 1537.4C1326.76 1547.14 1316.61 1552.88 1306.69 1550.22C1296.78 1547.56 1290.85 1537.52 1293.46 1527.78C1296.07 1518.04 1306.22 1512.3 1316.14 1514.96C1326.06 1517.62 1331.98 1527.67 1329.37 1537.4Z" fill="black"/>
<path d="M1278.25 1490.83L1283.39 1471.63C1284.15 1468.78 1282.3 1465.89 1279.4 1465.4L1008.18 1419.58" stroke="black" stroke-width="5" stroke-linecap="round" stroke-linejoin="round"/>
<path d="M1055.98 1241.17L1389.49 1300.5L1286.26 1418.51L1031.39 1332.95L1055.98 1241.17Z" fill="#145F88" stroke="black"/>
<path d="M1294.49 1409.76L1033.92 1323.51" stroke="black" stroke-width="3"/>
<path d="M1387.44 1299.95L1058.47 1240.07M1048.01 1279.1L1346 1352.54" stroke="black" stroke-width="3"/>
<path d="M1318.81 1502.81L1325.62 1477.37L1287.61 1419.38M1287.61 1419.38L1402.23 1285.4M1287.61 1419.38L1031.06 1334.21L1060.75 1223.4L1402.23 1285.4M1450.46 1260.97L1422.25 1262L1402.23 1285.4" stroke="black" stroke-width="5" stroke-linecap="round" stroke-linejoin="round"/>
<path d="M1310.9 1532.45L1318.85 1502.82L1295.34 1496.52L1310.9 1532.45Z" fill="black" stroke="black"/>
<path d="M1031.65 1458.72L1039.86 1428.06L1016.36 1421.77L1031.65 1458.72Z" fill="black" stroke="black" stroke-linecap="round" stroke-linejoin="round"/>
<mask id="path-32-inside-2" fill="white">
<path d="M1211.84 1456.62C1219.43 1458.65 1227.54 1457.48 1234.4 1453.36C1241.25 1449.24 1246.29 1442.51 1248.39 1434.65C1250.5 1426.79 1249.5 1418.45 1245.63 1411.45C1241.75 1404.45 1235.31 1399.38 1227.72 1397.35L1226.46 1402.05C1232.84 1403.76 1238.26 1408.03 1241.52 1413.92C1244.78 1419.8 1245.62 1426.82 1243.85 1433.43C1242.08 1440.05 1237.84 1445.71 1232.08 1449.18C1226.31 1452.64 1219.48 1453.63 1213.1 1451.92L1211.84 1456.62Z"/>
</mask>
<path d="M1211.84 1456.62C1219.43 1458.65 1227.54 1457.48 1234.4 1453.36C1241.25 1449.24 1246.29 1442.51 1248.39 1434.65C1250.5 1426.79 1249.5 1418.45 1245.63 1411.45C1241.75 1404.45 1235.31 1399.38 1227.72 1397.35L1226.46 1402.05C1232.84 1403.76 1238.26 1408.03 1241.52 1413.92C1244.78 1419.8 1245.62 1426.82 1243.85 1433.43C1242.08 1440.05 1237.84 1445.71 1232.08 1449.18C1226.31 1452.64 1219.48 1453.63 1213.1 1451.92L1211.84 1456.62Z" fill="black" stroke="black" stroke-width="16" mask="url(#path-32-inside-2)"/>
<path d="M1209.48 1267.86L1181.46 1372.43M1124.14 1252.52L1108.05 1347.49M1309.16 1285.54L1239.53 1391.75" stroke="black" stroke-width="2"/>
<path d="M1366.22 1326.03L1052.74 1257.36" stroke="black" stroke-width="2"/>
<path d="M1287.4 1420.2L1307.5 1468.87L1300.74 1494.11" stroke="black" stroke-width="5"/>
<path d="M1316.74 1383.96L1042.74 1302.88" stroke="black" stroke-width="2"/>
</g>
<g filter="url(#filter2_d)">
<path d="M887.828 1397.23C894.11 1407.8 890.633 1421.47 880.061 1427.75C869.49 1434.03 855.827 1430.55 849.545 1419.98C843.263 1409.41 846.74 1395.75 857.312 1389.47C867.883 1383.18 881.546 1386.66 887.828 1397.23ZM856.457 1415.88C860.471 1422.63 869.2 1424.85 875.954 1420.84C882.708 1416.82 884.93 1408.09 880.916 1401.34C876.903 1394.59 868.174 1392.36 861.419 1396.38C854.665 1400.39 852.443 1409.12 856.457 1415.88Z" fill="black" fill-opacity="0.5"/>
<path d="M880.821 1401.94C887.103 1412.51 883.626 1426.18 873.054 1432.46C862.483 1438.74 848.82 1435.26 842.538 1424.69C836.256 1414.12 839.733 1400.46 850.305 1394.17C860.876 1387.89 874.539 1391.37 880.821 1401.94ZM849.45 1420.58C853.463 1427.34 862.193 1429.56 868.947 1425.55C875.701 1421.53 877.923 1412.8 873.909 1406.05C869.895 1399.29 861.166 1397.07 854.412 1401.09C847.658 1405.1 845.436 1413.83 849.45 1420.58Z" fill="black"/>
<path d="M659.012 1504.93L870.809 1380.34" stroke="black" stroke-width="5" stroke-linecap="round" stroke-linejoin="round"/>
<path d="M689.895 1514.93C696.063 1525.31 692.493 1538.81 681.922 1545.09C671.35 1551.38 657.78 1548.06 651.613 1537.68C645.445 1527.3 649.015 1513.79 659.586 1507.51C670.158 1501.23 683.728 1504.55 689.895 1514.93ZM658.524 1533.57C662.465 1540.2 671.135 1542.32 677.889 1538.31C684.644 1534.3 686.924 1525.67 682.984 1519.03C679.043 1512.4 670.373 1510.28 663.619 1514.29C656.864 1518.31 654.584 1526.94 658.524 1533.57Z" fill="black"/>
<path d="M698.494 1509.27C704.662 1519.65 701.092 1533.16 690.521 1539.44C679.949 1545.72 666.379 1542.4 660.212 1532.02C654.044 1521.64 657.614 1508.14 668.185 1501.85C678.757 1495.57 692.327 1498.89 698.494 1509.27ZM667.123 1527.91C671.064 1534.55 679.734 1536.67 686.488 1532.65C693.243 1528.64 695.523 1520.01 691.583 1513.38C687.642 1506.75 678.972 1504.63 672.218 1508.64C665.463 1512.65 663.183 1521.28 667.123 1527.91Z" fill="black" fill-opacity="0.47"/>
<path d="M689.895 1514.93C696.063 1525.31 692.493 1538.81 681.922 1545.09C671.35 1551.38 657.78 1548.06 651.613 1537.68C645.445 1527.3 649.015 1513.79 659.586 1507.51C670.158 1501.23 683.728 1504.55 689.895 1514.93ZM658.524 1533.57C662.465 1540.2 671.135 1542.32 677.889 1538.31C684.644 1534.3 686.924 1525.67 682.984 1519.03C679.043 1512.4 670.373 1510.28 663.619 1514.29C656.864 1518.31 654.584 1526.94 658.524 1533.57Z" fill="black"/>
<path d="M686.53 1488.66L679.416 1476.69C677.91 1474.15 678.912 1470.87 681.577 1469.61L870.707 1380.17" stroke="black" stroke-width="5" stroke-linecap="round" stroke-linejoin="round"/>
<path d="M798.497 1258.65L565.113 1371.51L665.63 1437.05L835.645 1321.16L798.497 1258.65Z" fill="#145F88" stroke="black"/>
<path d="M657.753 1432.31L831.826 1314.74" stroke="black" stroke-width="3"/>
<path d="M566.505 1370.68L796.437 1258.35M812.234 1284.94L607.937 1400.83" stroke="black" stroke-width="3"/>
<path d="M659.132 1505.89L648.836 1488.57L664.813 1437.97M664.813 1437.97L552.592 1363.03M664.813 1437.97L836.154 1322.02L791.305 1246.55L552.592 1363.03M512 1355.04L532.998 1349.95L552.592 1363.03" stroke="black" stroke-width="5" stroke-linecap="round" stroke-linejoin="round"/>
<path d="M671.102 1526.09L659.107 1505.91L675.116 1496.4L671.102 1526.09Z" fill="black" stroke="black"/>
<path d="M861.538 1413.87L849.129 1392.99L865.139 1383.48L861.538 1413.87Z" fill="black" stroke="black" stroke-linecap="round" stroke-linejoin="round"/>
<mask id="path-50-inside-3" fill="white">
<path d="M728.359 1449.69C723.19 1452.76 716.969 1453.58 711.064 1451.96C705.16 1450.35 700.055 1446.44 696.874 1441.08C693.693 1435.73 692.695 1429.38 694.1 1423.42C695.506 1417.46 699.199 1412.39 704.368 1409.32L706.272 1412.52C701.924 1415.1 698.817 1419.37 697.634 1424.38C696.452 1429.4 697.291 1434.74 699.968 1439.24C702.644 1443.75 706.938 1447.04 711.905 1448.4C716.873 1449.76 722.106 1449.07 726.455 1446.48L728.359 1449.69Z"/>
</mask>
<path d="M728.359 1449.69C723.19 1452.76 716.969 1453.58 711.064 1451.96C705.16 1450.35 700.055 1446.44 696.874 1441.08C693.693 1435.73 692.695 1429.38 694.1 1423.42C695.506 1417.46 699.199 1412.39 704.368 1409.32L706.272 1412.52C701.924 1415.1 698.817 1419.37 697.634 1424.38C696.452 1429.4 697.291 1434.74 699.968 1439.24C702.644 1443.75 706.938 1447.04 711.905 1448.4C716.873 1449.76 722.106 1449.07 726.455 1446.48L728.359 1449.69Z" fill="black" stroke="black" stroke-width="16" mask="url(#path-50-inside-3)"/>
<path d="M690.958 1310.14L733.282 1381.37M750.642 1281.14L782.191 1347.77M621.191 1343.84L694.507 1407.64" stroke="black" stroke-width="2"/>
<path d="M587.549 1385.49L804.244 1269.91" stroke="black" stroke-width="2"/>
<path d="M665.138 1438.52L660.424 1478.55L670.641 1495.74" stroke="black" stroke-width="5"/>
<path d="M636.013 1417.91L821.052 1301.36" stroke="black" stroke-width="2"/>
</g>
<g filter="url(#filter3_d)">
<path d="M8.68839 1459.1C4.52961 1474.62 13.7403 1490.58 29.2611 1494.74C44.7819 1498.89 60.7354 1489.68 64.8942 1474.16C69.053 1458.64 59.8422 1442.69 44.3214 1438.53C28.8006 1434.37 12.8472 1443.58 8.68839 1459.1ZM54.7465 1471.44C52.0894 1481.36 41.8966 1487.25 31.9802 1484.59C22.0638 1481.93 16.1789 1471.74 18.836 1461.82C21.4931 1451.91 31.686 1446.02 41.6024 1448.68C51.5188 1451.33 57.4036 1461.53 54.7465 1471.44Z" fill="black" fill-opacity="0.5"/>
<path d="M19.1687 1462.54C15.01 1478.06 24.2207 1494.02 39.7415 1498.18C55.2623 1502.34 71.2157 1493.13 75.3745 1477.6C79.5333 1462.08 70.3226 1446.13 54.8018 1441.97C39.281 1437.81 23.3275 1447.02 19.1687 1462.54ZM65.2269 1474.89C62.5698 1484.8 52.3769 1490.69 42.4605 1488.03C32.5441 1485.37 26.6593 1475.18 29.3164 1465.26C31.9735 1455.35 42.1663 1449.46 52.0827 1452.12C61.9991 1454.78 67.884 1464.97 65.2269 1474.89Z" fill="black"/>
<path d="M334.618 1513.55L24.1138 1431.83" stroke="black" stroke-width="5" stroke-linecap="round" stroke-linejoin="round"/>
<path d="M299.313 1537.06C295.229 1552.3 304.501 1568.02 320.022 1572.18C335.543 1576.34 351.435 1567.36 355.518 1552.12C359.602 1536.88 350.33 1521.16 334.809 1517C319.288 1512.84 303.396 1521.82 299.313 1537.06ZM345.371 1549.4C342.762 1559.14 332.608 1564.88 322.692 1562.22C312.775 1559.56 306.851 1549.52 309.46 1539.78C312.069 1530.04 322.223 1524.3 332.139 1526.96C342.056 1529.62 347.98 1539.67 345.371 1549.4Z" fill="black"/>
<path d="M286.495 1532.99C282.412 1548.23 291.684 1563.96 307.205 1568.12C322.726 1572.27 338.618 1563.29 342.701 1548.05C346.784 1532.82 337.512 1517.09 321.991 1512.93C306.471 1508.77 290.578 1517.75 286.495 1532.99ZM332.553 1545.33C329.945 1555.07 319.791 1560.81 309.874 1558.15C299.958 1555.5 294.034 1545.45 296.643 1535.71C299.252 1525.98 309.405 1520.24 319.322 1522.89C329.238 1525.55 335.162 1535.6 332.553 1545.33Z" fill="black" fill-opacity="0.47"/>
<path d="M299.313 1537.06C295.229 1552.3 304.501 1568.02 320.022 1572.18C335.543 1576.34 351.435 1567.36 355.518 1552.12C359.602 1536.88 350.33 1521.16 334.809 1517C319.288 1512.84 303.396 1521.82 299.313 1537.06ZM345.371 1549.4C342.762 1559.14 332.608 1564.88 322.692 1562.22C312.775 1559.56 306.851 1549.52 309.46 1539.78C312.069 1530.04 322.223 1524.3 332.139 1526.96C342.056 1529.62 347.98 1539.67 345.371 1549.4Z" fill="black"/>
<path d="M294.246 1502.83L299.392 1483.63C300.155 1480.78 298.301 1477.89 295.395 1477.4L24.1808 1431.58" stroke="black" stroke-width="5" stroke-linecap="round" stroke-linejoin="round"/>
<path d="M71.9841 1253.17L405.487 1312.5L302.26 1430.51L47.3922 1344.95L71.9841 1253.17Z" fill="#145F88" stroke="black"/>
<path d="M310.491 1421.76L49.9202 1335.51" stroke="black" stroke-width="3"/>
<path d="M403.443 1311.95L74.4705 1252.07M64.0123 1291.1L362.005 1364.54" stroke="black" stroke-width="3"/>
<path d="M334.809 1514.81L341.625 1489.37L303.614 1431.38M303.614 1431.38L418.233 1297.4M303.614 1431.38L47.0554 1346.21L76.7457 1235.4L418.233 1297.4M466.46 1272.97L438.246 1274L418.233 1297.4" stroke="black" stroke-width="5" stroke-linecap="round" stroke-linejoin="round"/>
<path d="M326.905 1544.45L334.845 1514.82L311.341 1508.52L326.905 1544.45Z" fill="black" stroke="black"/>
<path d="M47.6456 1470.72L55.8604 1440.06L32.3561 1433.77L47.6456 1470.72Z" fill="black" stroke="black" stroke-linecap="round" stroke-linejoin="round"/>
<mask id="path-68-inside-4" fill="white">
<path d="M227.837 1468.62C235.426 1470.65 243.541 1469.48 250.396 1465.36C257.251 1461.24 262.286 1454.51 264.392 1446.65C266.498 1438.79 265.503 1430.45 261.626 1423.45C257.749 1416.45 251.308 1411.38 243.719 1409.35L242.458 1414.05C248.843 1415.76 254.262 1420.03 257.523 1425.92C260.785 1431.8 261.622 1438.82 259.85 1445.43C258.078 1452.05 253.843 1457.71 248.076 1461.18C242.308 1464.64 235.482 1465.63 229.097 1463.92L227.837 1468.62Z"/>
</mask>
<path d="M227.837 1468.62C235.426 1470.65 243.541 1469.48 250.396 1465.36C257.251 1461.24 262.286 1454.51 264.392 1446.65C266.498 1438.79 265.503 1430.45 261.626 1423.45C257.749 1416.45 251.308 1411.38 243.719 1409.35L242.458 1414.05C248.843 1415.76 254.262 1420.03 257.523 1425.92C260.785 1431.8 261.622 1438.82 259.85 1445.43C258.078 1452.05 253.843 1457.71 248.076 1461.18C242.308 1464.64 235.482 1465.63 229.097 1463.92L227.837 1468.62Z" fill="black" stroke="black" stroke-width="16" mask="url(#path-68-inside-4)"/>
<path d="M225.475 1279.86L197.456 1384.43M140.138 1264.52L124.046 1359.49M325.156 1297.54L255.529 1403.75" stroke="black" stroke-width="2"/>
<path d="M382.217 1338.03L68.7407 1269.36" stroke="black" stroke-width="2"/>
<path d="M303.402 1432.2L323.502 1480.87L316.738 1506.11" stroke="black" stroke-width="5"/>
<path d="M332.739 1395.96L58.7363 1314.88" stroke="black" stroke-width="2"/>
</g>
<g filter="url(#filter4_d)">
<path d="M1468.69 1066.1C1464.53 1081.62 1473.74 1097.58 1489.26 1101.74C1504.78 1105.89 1520.74 1096.68 1524.89 1081.16C1529.05 1065.64 1519.84 1049.69 1504.32 1045.53C1488.8 1041.37 1472.85 1050.58 1468.69 1066.1ZM1514.75 1078.44C1512.09 1088.36 1501.9 1094.25 1491.98 1091.59C1482.06 1088.93 1476.18 1078.74 1478.84 1068.82C1481.49 1058.91 1491.69 1053.02 1501.6 1055.68C1511.52 1058.33 1517.4 1068.53 1514.75 1078.44Z" fill="black" fill-opacity="0.5"/>
<path d="M1479.17 1069.54C1475.01 1085.06 1484.22 1101.02 1499.74 1105.18C1515.26 1109.34 1531.22 1100.12 1535.37 1084.6C1539.53 1069.08 1530.32 1053.13 1514.8 1048.97C1499.28 1044.81 1483.33 1054.02 1479.17 1069.54ZM1525.23 1081.89C1522.57 1091.8 1512.38 1097.69 1502.46 1095.03C1492.54 1092.37 1486.66 1082.18 1489.32 1072.26C1491.97 1062.35 1502.17 1056.46 1512.08 1059.12C1522 1061.78 1527.88 1071.97 1525.23 1081.89Z" fill="black"/>
<path d="M1794.62 1120.55L1484.11 1038.83" stroke="black" stroke-width="5" stroke-linecap="round" stroke-linejoin="round"/>
<path d="M1759.31 1144.06C1755.23 1159.3 1764.5 1175.02 1780.02 1179.18C1795.54 1183.34 1811.44 1174.36 1815.52 1159.12C1819.6 1143.88 1810.33 1128.16 1794.81 1124C1779.29 1119.84 1763.4 1128.82 1759.31 1144.06ZM1805.37 1156.4C1802.76 1166.14 1792.61 1171.88 1782.69 1169.22C1772.78 1166.56 1766.85 1156.52 1769.46 1146.78C1772.07 1137.04 1782.22 1131.3 1792.14 1133.96C1802.06 1136.62 1807.98 1146.67 1805.37 1156.4Z" fill="black"/>
<path d="M1746.5 1139.99C1742.41 1155.23 1751.68 1170.96 1767.2 1175.12C1782.73 1179.27 1798.62 1170.29 1802.7 1155.05C1806.78 1139.82 1797.51 1124.09 1781.99 1119.93C1766.47 1115.77 1750.58 1124.75 1746.5 1139.99ZM1792.55 1152.33C1789.94 1162.07 1779.79 1167.81 1769.87 1165.15C1759.96 1162.5 1754.03 1152.45 1756.64 1142.71C1759.25 1132.98 1769.41 1127.24 1779.32 1129.89C1789.24 1132.55 1795.16 1142.6 1792.55 1152.33Z" fill="black" fill-opacity="0.47"/>
<path d="M1759.31 1144.06C1755.23 1159.3 1764.5 1175.02 1780.02 1179.18C1795.54 1183.34 1811.44 1174.36 1815.52 1159.12C1819.6 1143.88 1810.33 1128.16 1794.81 1124C1779.29 1119.84 1763.4 1128.82 1759.31 1144.06ZM1805.37 1156.4C1802.76 1166.14 1792.61 1171.88 1782.69 1169.22C1772.78 1166.56 1766.85 1156.52 1769.46 1146.78C1772.07 1137.04 1782.22 1131.3 1792.14 1133.96C1802.06 1136.62 1807.98 1146.67 1805.37 1156.4Z" fill="black"/>
<path d="M1754.25 1109.83L1759.39 1090.63C1760.15 1087.78 1758.3 1084.89 1755.4 1084.4L1484.18 1038.58" stroke="black" stroke-width="5" stroke-linecap="round" stroke-linejoin="round"/>
<path d="M1531.98 860.171L1865.49 919.497L1762.26 1037.51L1507.39 951.949L1531.98 860.171Z" fill="#145F88" stroke="black"/>
<path d="M1770.49 1028.76L1509.92 942.515" stroke="black" stroke-width="3"/>
<path d="M1863.44 918.949L1534.47 859.067M1524.01 898.098L1822 971.538" stroke="black" stroke-width="3"/>
<path d="M1794.81 1121.81L1801.62 1096.37L1763.61 1038.38M1763.61 1038.38L1878.23 904.399M1763.61 1038.38L1507.06 953.207L1536.75 842.401L1878.23 904.399M1926.46 879.975L1898.25 881.004L1878.23 904.399" stroke="black" stroke-width="5" stroke-linecap="round" stroke-linejoin="round"/>
<path d="M1786.9 1151.45L1794.85 1121.82L1771.34 1115.52L1786.9 1151.45Z" fill="black" stroke="black"/>
<path d="M1507.65 1077.72L1515.86 1047.06L1492.36 1040.77L1507.65 1077.72Z" fill="black" stroke="black" stroke-linecap="round" stroke-linejoin="round"/>
<mask id="path-86-inside-5" fill="white">
<path d="M1687.84 1075.62C1695.43 1077.65 1703.54 1076.48 1710.4 1072.36C1717.25 1068.24 1722.29 1061.51 1724.39 1053.65C1726.5 1045.79 1725.5 1037.45 1721.63 1030.45C1717.75 1023.45 1711.31 1018.38 1703.72 1016.35L1702.46 1021.05C1708.84 1022.76 1714.26 1027.03 1717.52 1032.92C1720.78 1038.8 1721.62 1045.82 1719.85 1052.43C1718.08 1059.05 1713.84 1064.71 1708.08 1068.17C1702.31 1071.64 1695.48 1072.63 1689.1 1070.92L1687.84 1075.62Z"/>
</mask>
<path d="M1687.84 1075.62C1695.43 1077.65 1703.54 1076.48 1710.4 1072.36C1717.25 1068.24 1722.29 1061.51 1724.39 1053.65C1726.5 1045.79 1725.5 1037.45 1721.63 1030.45C1717.75 1023.45 1711.31 1018.38 1703.72 1016.35L1702.46 1021.05C1708.84 1022.76 1714.26 1027.03 1717.52 1032.92C1720.78 1038.8 1721.62 1045.82 1719.85 1052.43C1718.08 1059.05 1713.84 1064.71 1708.08 1068.17C1702.31 1071.64 1695.48 1072.63 1689.1 1070.92L1687.84 1075.62Z" fill="black" stroke="black" stroke-width="16" mask="url(#path-86-inside-5)"/>
<path d="M1685.48 886.861L1657.46 991.43M1600.14 871.517L1584.05 966.494M1785.16 904.544L1715.53 1010.75" stroke="black" stroke-width="2"/>
<path d="M1842.22 945.025L1528.74 876.364" stroke="black" stroke-width="2"/>
<path d="M1763.4 1039.2L1783.5 1087.87L1776.74 1113.11" stroke="black" stroke-width="5"/>
<path d="M1792.74 1002.96L1518.74 921.876" stroke="black" stroke-width="2"/>
</g>
<g filter="url(#filter5_d)">
<path d="M1400.83 1016.23C1407.11 1026.8 1403.63 1040.47 1393.06 1046.75C1382.49 1053.03 1368.83 1049.55 1362.55 1038.98C1356.26 1028.41 1359.74 1014.75 1370.31 1008.47C1380.88 1002.18 1394.55 1005.66 1400.83 1016.23ZM1369.46 1034.88C1373.47 1041.63 1382.2 1043.85 1388.95 1039.84C1395.71 1035.82 1397.93 1027.09 1393.92 1020.34C1389.9 1013.59 1381.17 1011.36 1374.42 1015.38C1367.66 1019.39 1365.44 1028.12 1369.46 1034.88Z" fill="black" fill-opacity="0.5"/>
<path d="M1393.82 1020.94C1400.1 1031.51 1396.63 1045.18 1386.05 1051.46C1375.48 1057.74 1361.82 1054.26 1355.54 1043.69C1349.26 1033.12 1352.73 1019.46 1363.3 1013.17C1373.88 1006.89 1387.54 1010.37 1393.82 1020.94ZM1362.45 1039.58C1366.46 1046.34 1375.19 1048.56 1381.95 1044.55C1388.7 1040.53 1390.92 1031.8 1386.91 1025.05C1382.9 1018.29 1374.17 1016.07 1367.41 1020.09C1360.66 1024.1 1358.44 1032.83 1362.45 1039.58Z" fill="black"/>
<path d="M1172.01 1123.93L1383.81 999.339" stroke="black" stroke-width="5" stroke-linecap="round" stroke-linejoin="round"/>
<path d="M1202.9 1133.93C1209.06 1144.31 1205.49 1157.81 1194.92 1164.09C1184.35 1170.38 1170.78 1167.06 1164.61 1156.68C1158.44 1146.3 1162.01 1132.79 1172.59 1126.51C1183.16 1120.23 1196.73 1123.55 1202.9 1133.93ZM1171.52 1152.57C1175.46 1159.2 1184.14 1161.32 1190.89 1157.31C1197.64 1153.3 1199.92 1144.67 1195.98 1138.03C1192.04 1131.4 1183.37 1129.28 1176.62 1133.29C1169.86 1137.31 1167.58 1145.94 1171.52 1152.57Z" fill="black"/>
<path d="M1211.49 1128.27C1217.66 1138.65 1214.09 1152.16 1203.52 1158.44C1192.95 1164.72 1179.38 1161.4 1173.21 1151.02C1167.04 1140.64 1170.61 1127.14 1181.19 1120.85C1191.76 1114.57 1205.33 1117.89 1211.49 1128.27ZM1180.12 1146.91C1184.06 1153.55 1192.73 1155.67 1199.49 1151.65C1206.24 1147.64 1208.52 1139.01 1204.58 1132.38C1200.64 1125.75 1191.97 1123.63 1185.22 1127.64C1178.46 1131.65 1176.18 1140.28 1180.12 1146.91Z" fill="black" fill-opacity="0.47"/>
<path d="M1202.9 1133.93C1209.06 1144.31 1205.49 1157.81 1194.92 1164.09C1184.35 1170.38 1170.78 1167.06 1164.61 1156.68C1158.44 1146.3 1162.01 1132.79 1172.59 1126.51C1183.16 1120.23 1196.73 1123.55 1202.9 1133.93ZM1171.52 1152.57C1175.46 1159.2 1184.14 1161.32 1190.89 1157.31C1197.64 1153.3 1199.92 1144.67 1195.98 1138.03C1192.04 1131.4 1183.37 1129.28 1176.62 1133.29C1169.86 1137.31 1167.58 1145.94 1171.52 1152.57Z" fill="black"/>
<path d="M1199.53 1107.66L1192.42 1095.69C1190.91 1093.15 1191.91 1089.87 1194.58 1088.61L1383.71 999.167" stroke="black" stroke-width="5" stroke-linecap="round" stroke-linejoin="round"/>
<path d="M1311.5 877.651L1078.11 990.511L1178.63 1056.05L1348.64 940.164L1311.5 877.651Z" fill="#145F88" stroke="black"/>
<path d="M1170.75 1051.31L1344.83 933.738" stroke="black" stroke-width="3"/>
<path d="M1079.51 989.684L1309.44 877.354M1325.23 903.939L1120.94 1019.83" stroke="black" stroke-width="3"/>
<path d="M1172.13 1124.89L1161.84 1107.57L1177.81 1056.97M1177.81 1056.97L1065.59 982.031M1177.81 1056.97L1349.15 941.02L1304.3 865.548L1065.59 982.031M1025 974.039L1046 968.947L1065.59 982.031" stroke="black" stroke-width="5" stroke-linecap="round" stroke-linejoin="round"/>
<path d="M1184.1 1145.09L1172.11 1124.91L1188.12 1115.4L1184.1 1145.09Z" fill="black" stroke="black"/>
<path d="M1374.54 1032.87L1362.13 1011.99L1378.14 1002.48L1374.54 1032.87Z" fill="black" stroke="black" stroke-linecap="round" stroke-linejoin="round"/>
<mask id="path-104-inside-6" fill="white">
<path d="M1241.36 1068.69C1236.19 1071.76 1229.97 1072.58 1224.06 1070.96C1218.16 1069.35 1213.06 1065.44 1209.87 1060.08C1206.69 1054.73 1205.69 1048.38 1207.1 1042.42C1208.51 1036.46 1212.2 1031.39 1217.37 1028.32L1219.27 1031.52C1214.92 1034.1 1211.82 1038.37 1210.63 1043.38C1209.45 1048.4 1210.29 1053.74 1212.97 1058.24C1215.64 1062.75 1219.94 1066.04 1224.91 1067.4C1229.87 1068.76 1235.11 1068.07 1239.45 1065.48L1241.36 1068.69Z"/>
</mask>
<path d="M1241.36 1068.69C1236.19 1071.76 1229.97 1072.58 1224.06 1070.96C1218.16 1069.35 1213.06 1065.44 1209.87 1060.08C1206.69 1054.73 1205.69 1048.38 1207.1 1042.42C1208.51 1036.46 1212.2 1031.39 1217.37 1028.32L1219.27 1031.52C1214.92 1034.1 1211.82 1038.37 1210.63 1043.38C1209.45 1048.4 1210.29 1053.74 1212.97 1058.24C1215.64 1062.75 1219.94 1066.04 1224.91 1067.4C1229.87 1068.76 1235.11 1068.07 1239.45 1065.48L1241.36 1068.69Z" fill="black" stroke="black" stroke-width="16" mask="url(#path-104-inside-6)"/>
<path d="M1203.96 929.141L1246.28 1000.37M1263.64 900.142L1295.19 966.773M1134.19 962.838L1207.51 1026.64" stroke="black" stroke-width="2"/>
<path d="M1100.55 1004.49L1317.24 888.908" stroke="black" stroke-width="2"/>
<path d="M1178.14 1057.52L1173.42 1097.55L1183.64 1114.74" stroke="black" stroke-width="5"/>
<path d="M1149.01 1036.91L1334.05 920.361" stroke="black" stroke-width="2"/>
</g>
<g filter="url(#filter6_d)">
<path d="M490.688 1069.1C486.53 1084.62 495.74 1100.58 511.261 1104.74C526.782 1108.89 542.735 1099.68 546.894 1084.16C551.053 1068.64 541.842 1052.69 526.321 1048.53C510.801 1044.37 494.847 1053.58 490.688 1069.1ZM536.747 1081.44C534.089 1091.36 523.897 1097.25 513.98 1094.59C504.064 1091.93 498.179 1081.74 500.836 1071.82C503.493 1061.91 513.686 1056.02 523.602 1058.68C533.519 1061.33 539.404 1071.53 536.747 1081.44Z" fill="black" fill-opacity="0.5"/>
<path d="M501.169 1072.54C497.01 1088.06 506.221 1104.02 521.741 1108.18C537.262 1112.34 553.216 1103.12 557.375 1087.6C561.533 1072.08 552.323 1056.13 536.802 1051.97C521.281 1047.81 505.328 1057.02 501.169 1072.54ZM547.227 1084.89C544.57 1094.8 534.377 1100.69 524.461 1098.03C514.544 1095.37 508.659 1085.18 511.316 1075.26C513.973 1065.35 524.166 1059.46 534.083 1062.12C543.999 1064.78 549.884 1074.97 547.227 1084.89Z" fill="black"/>
<path d="M816.618 1123.55L506.114 1041.83" stroke="black" stroke-width="5" stroke-linecap="round" stroke-linejoin="round"/>
<path d="M781.313 1147.06C777.229 1162.3 786.501 1178.02 802.022 1182.18C817.543 1186.34 833.435 1177.36 837.518 1162.12C841.602 1146.88 832.33 1131.16 816.809 1127C801.288 1122.84 785.396 1131.82 781.313 1147.06ZM827.371 1159.4C824.762 1169.14 814.608 1174.88 804.692 1172.22C794.775 1169.56 788.851 1159.52 791.46 1149.78C794.069 1140.04 804.223 1134.3 814.139 1136.96C824.056 1139.62 829.98 1149.67 827.371 1159.4Z" fill="black"/>
<path d="M768.495 1142.99C764.412 1158.23 773.684 1173.96 789.205 1178.12C804.726 1182.27 820.618 1173.29 824.701 1158.05C828.784 1142.82 819.512 1127.09 803.991 1122.93C788.471 1118.77 772.578 1127.75 768.495 1142.99ZM814.553 1155.33C811.945 1165.07 801.791 1170.81 791.874 1168.15C781.958 1165.5 776.034 1155.45 778.643 1145.71C781.252 1135.98 791.405 1130.24 801.322 1132.89C811.238 1135.55 817.162 1145.6 814.553 1155.33Z" fill="black" fill-opacity="0.47"/>
<path d="M781.313 1147.06C777.229 1162.3 786.501 1178.02 802.022 1182.18C817.543 1186.34 833.435 1177.36 837.518 1162.12C841.602 1146.88 832.33 1131.16 816.809 1127C801.288 1122.84 785.396 1131.82 781.313 1147.06ZM827.371 1159.4C824.762 1169.14 814.608 1174.88 804.692 1172.22C794.775 1169.56 788.851 1159.52 791.46 1149.78C794.069 1140.04 804.223 1134.3 814.139 1136.96C824.056 1139.62 829.98 1149.67 827.371 1159.4Z" fill="black"/>
<path d="M776.246 1112.83L781.392 1093.63C782.155 1090.78 780.301 1087.89 777.395 1087.4L506.181 1041.58" stroke="black" stroke-width="5" stroke-linecap="round" stroke-linejoin="round"/>
<path d="M553.984 863.171L887.487 922.497L784.26 1040.51L529.392 954.949L553.984 863.171Z" fill="#145F88" stroke="black"/>
<path d="M792.491 1031.76L531.92 945.515" stroke="black" stroke-width="3"/>
<path d="M885.443 921.949L556.471 862.067M546.012 901.098L844.005 974.538" stroke="black" stroke-width="3"/>
<path d="M816.809 1124.81L823.625 1099.37L785.614 1041.38M785.614 1041.38L900.233 907.399M785.614 1041.38L529.055 956.207L558.746 845.401L900.233 907.399M948.46 882.975L920.246 884.004L900.233 907.399" stroke="black" stroke-width="5" stroke-linecap="round" stroke-linejoin="round"/>
<path d="M808.905 1154.45L816.845 1124.82L793.341 1118.52L808.905 1154.45Z" fill="black" stroke="black"/>
<path d="M529.646 1080.72L537.86 1050.06L514.356 1043.77L529.646 1080.72Z" fill="black" stroke="black" stroke-linecap="round" stroke-linejoin="round"/>
<mask id="path-122-inside-7" fill="white">
<path d="M709.837 1078.62C717.426 1080.65 725.541 1079.48 732.396 1075.36C739.251 1071.24 744.286 1064.51 746.392 1056.65C748.498 1048.79 747.503 1040.45 743.626 1033.45C739.749 1026.45 733.308 1021.38 725.719 1019.35L724.458 1024.05C730.843 1025.76 736.262 1030.03 739.523 1035.92C742.785 1041.8 743.622 1048.82 741.85 1055.43C740.078 1062.05 735.843 1067.71 730.076 1071.17C724.308 1074.64 717.482 1075.63 711.097 1073.92L709.837 1078.62Z"/>
</mask>
<path d="M709.837 1078.62C717.426 1080.65 725.541 1079.48 732.396 1075.36C739.251 1071.24 744.286 1064.51 746.392 1056.65C748.498 1048.79 747.503 1040.45 743.626 1033.45C739.749 1026.45 733.308 1021.38 725.719 1019.35L724.458 1024.05C730.843 1025.76 736.262 1030.03 739.523 1035.92C742.785 1041.8 743.622 1048.82 741.85 1055.43C740.078 1062.05 735.843 1067.71 730.076 1071.17C724.308 1074.64 717.482 1075.63 711.097 1073.92L709.837 1078.62Z" fill="black" stroke="black" stroke-width="16" mask="url(#path-122-inside-7)"/>
<path d="M707.475 889.861L679.456 994.43M622.138 874.517L606.046 969.494M807.156 907.544L737.529 1013.75" stroke="black" stroke-width="2"/>
<path d="M864.217 948.025L550.741 879.364" stroke="black" stroke-width="2"/>
<path d="M785.402 1042.2L805.502 1090.87L798.738 1116.11" stroke="black" stroke-width="5"/>
<path d="M814.739 1005.96L540.736 924.876" stroke="black" stroke-width="2"/>
</g>
<g filter="url(#filter7_d)">
<path d="M427.268 1005.68C433.416 1016.33 429.767 1029.95 419.118 1036.1C408.468 1042.25 394.85 1038.6 388.702 1027.95C382.553 1017.3 386.202 1003.68 396.852 997.534C407.501 991.386 421.119 995.035 427.268 1005.68ZM395.664 1023.93C399.593 1030.73 408.293 1033.07 415.098 1029.14C421.902 1025.21 424.233 1016.51 420.305 1009.7C416.376 1002.9 407.676 1000.57 400.872 1004.5C394.067 1008.43 391.736 1017.13 395.664 1023.93Z" fill="black" fill-opacity="0.5"/>
<path d="M420.202 1010.3C426.35 1020.95 422.702 1034.57 412.052 1040.72C401.402 1046.87 387.784 1043.22 381.636 1032.57C375.487 1021.92 379.136 1008.3 389.786 1002.15C400.435 996.005 414.053 999.654 420.202 1010.3ZM388.599 1028.55C392.527 1035.35 401.228 1037.69 408.032 1033.76C414.836 1029.83 417.167 1021.13 413.239 1014.32C409.311 1007.52 400.61 1005.19 393.806 1009.12C387.002 1013.05 384.67 1021.75 388.599 1028.55Z" fill="black"/>
<path d="M197.115 1110.49L410.462 988.577" stroke="black" stroke-width="5" stroke-linecap="round" stroke-linejoin="round"/>
<path d="M227.87 1120.88C233.907 1131.34 230.168 1144.8 219.518 1150.94C208.868 1157.09 195.341 1153.6 189.304 1143.15C183.267 1132.69 187.007 1119.23 197.657 1113.08C208.306 1106.93 221.833 1110.42 227.87 1120.88ZM196.267 1139.13C200.124 1145.81 208.767 1148.04 215.571 1144.11C222.375 1140.18 224.764 1131.58 220.907 1124.9C217.05 1118.22 208.408 1115.99 201.604 1119.92C194.799 1123.84 192.41 1132.44 196.267 1139.13Z" fill="black"/>
<path d="M236.54 1115.33C242.577 1125.79 238.837 1139.25 228.187 1145.4C217.538 1151.55 204.01 1148.06 197.974 1137.6C191.937 1127.14 195.676 1113.68 206.326 1107.53C216.976 1101.39 230.503 1104.88 236.54 1115.33ZM204.937 1133.58C208.793 1140.26 217.436 1142.49 224.24 1138.56C231.045 1134.63 233.434 1126.03 229.577 1119.35C225.72 1112.67 217.077 1110.44 210.273 1114.37C203.469 1118.3 201.08 1126.9 204.937 1133.58Z" fill="black" fill-opacity="0.47"/>
<path d="M227.87 1120.88C233.907 1131.34 230.168 1144.8 219.518 1150.94C208.868 1157.09 195.341 1153.6 189.304 1143.15C183.267 1132.69 187.007 1119.23 197.657 1113.08C208.306 1106.93 221.833 1110.42 227.87 1120.88ZM196.267 1139.13C200.124 1145.81 208.767 1148.04 215.571 1144.11C222.375 1140.18 224.764 1131.58 220.907 1124.9C217.05 1118.22 208.408 1115.99 201.604 1119.92C194.799 1123.84 192.41 1132.44 196.267 1139.13Z" fill="black"/>
<path d="M224.835 1094.57L217.872 1082.51C216.399 1079.96 217.442 1076.69 220.122 1075.46L410.363 988.404" stroke="black" stroke-width="5" stroke-linecap="round" stroke-linejoin="round"/>
<path d="M339.687 865.99L104.902 975.905L204.586 1042.7L376.045 928.964L339.687 865.99Z" fill="#145F88" stroke="black"/>
<path d="M196.769 1037.86L372.308 922.491" stroke="black" stroke-width="3"/>
<path d="M106.304 975.095L337.63 865.666M353.093 892.448L147.353 1005.76" stroke="black" stroke-width="3"/>
<path d="M197.223 1111.46L187.146 1094.01L203.758 1043.61M203.758 1043.61L92.4888 967.268M203.758 1043.61L376.543 929.827L332.647 853.797L92.4888 967.268M52 958.766L73.0608 953.939L92.4888 967.268" stroke="black" stroke-width="5" stroke-linecap="round" stroke-linejoin="round"/>
<path d="M208.938 1131.81L197.198 1111.47L213.325 1102.16L208.938 1131.81Z" fill="black" stroke="black"/>
<path d="M400.771 1021.99L388.625 1000.95L404.753 991.643L400.771 1021.99Z" fill="black" stroke="black" stroke-linecap="round" stroke-linejoin="round"/>
<mask id="path-140-inside-8" fill="white">
<path d="M267.151 1056.13C261.944 1059.13 255.713 1059.88 249.829 1058.19C243.946 1056.5 238.891 1052.52 235.777 1047.13C232.663 1041.74 231.746 1035.37 233.226 1029.43C234.706 1023.49 238.463 1018.46 243.67 1015.46L245.534 1018.69C241.153 1021.22 237.993 1025.44 236.747 1030.44C235.502 1035.44 236.274 1040.79 238.894 1045.33C241.513 1049.87 245.765 1053.21 250.715 1054.63C255.665 1056.05 260.907 1055.43 265.287 1052.9L267.151 1056.13Z"/>
</mask>
<path d="M267.151 1056.13C261.944 1059.13 255.713 1059.88 249.829 1058.19C243.946 1056.5 238.891 1052.52 235.777 1047.13C232.663 1041.74 231.746 1035.37 233.226 1029.43C234.706 1023.49 238.463 1018.46 243.67 1015.46L245.534 1018.69C241.153 1021.22 237.993 1025.44 236.747 1030.44C235.502 1035.44 236.274 1040.79 238.894 1045.33C241.513 1049.87 245.765 1053.21 250.715 1054.63C255.665 1056.05 260.907 1055.43 265.287 1052.9L267.151 1056.13Z" fill="black" stroke="black" stroke-width="16" mask="url(#path-140-inside-8)"/>
<path d="M231.508 916.123L272.933 987.874M291.553 887.877L322.262 954.9M161.324 948.939L233.831 1013.66" stroke="black" stroke-width="2"/>
<path d="M127.16 990.167L345.292 877.318" stroke="black" stroke-width="2"/>
<path d="M175.212 1023.2L361.703 908.98" stroke="black" stroke-width="2"/>
</g>
<g filter="url(#filter8_d)">
<path d="M1880.83 618.233C1887.11 628.805 1883.63 642.467 1873.06 648.749C1862.49 655.031 1848.83 651.554 1842.55 640.982C1836.26 630.411 1839.74 616.748 1850.31 610.466C1860.88 604.184 1874.55 607.661 1880.83 618.233ZM1849.46 636.875C1853.47 643.629 1862.2 645.851 1868.95 641.837C1875.71 637.824 1877.93 629.095 1873.92 622.34C1869.9 615.586 1861.17 613.364 1854.42 617.378C1847.66 621.392 1845.44 630.121 1849.46 636.875Z" fill="black" fill-opacity="0.5"/>
<path d="M1873.82 622.941C1880.1 633.513 1876.63 647.175 1866.05 653.457C1855.48 659.739 1841.82 656.262 1835.54 645.691C1829.26 635.119 1832.73 621.456 1843.3 615.174C1853.88 608.892 1867.54 612.37 1873.82 622.941ZM1842.45 641.583C1846.46 648.338 1855.19 650.559 1861.95 646.546C1868.7 642.532 1870.92 633.803 1866.91 627.048C1862.9 620.294 1854.17 618.072 1847.41 622.086C1840.66 626.1 1838.44 634.829 1842.45 641.583Z" fill="black"/>
<path d="M1652.01 725.93L1863.81 601.339" stroke="black" stroke-width="5" stroke-linecap="round" stroke-linejoin="round"/>
<path d="M1682.9 735.927C1689.06 746.306 1685.49 759.813 1674.92 766.095C1664.35 772.377 1650.78 769.056 1644.61 758.676C1638.44 748.297 1642.01 734.79 1652.59 728.508C1663.16 722.226 1676.73 725.547 1682.9 735.927ZM1651.52 754.569C1655.46 761.2 1664.14 763.323 1670.89 759.309C1677.64 755.295 1679.92 746.666 1675.98 740.034C1672.04 733.403 1663.37 731.28 1656.62 735.294C1649.86 739.308 1647.58 747.938 1651.52 754.569Z" fill="black"/>
<path d="M1691.49 730.273C1697.66 740.652 1694.09 754.159 1683.52 760.441C1672.95 766.723 1659.38 763.402 1653.21 753.022C1647.04 742.643 1650.61 729.136 1661.19 722.854C1671.76 716.572 1685.33 719.893 1691.49 730.273ZM1660.12 748.915C1664.06 755.546 1672.73 757.669 1679.49 753.655C1686.24 749.641 1688.52 741.012 1684.58 734.38C1680.64 727.749 1671.97 725.626 1665.22 729.64C1658.46 733.654 1656.18 742.283 1660.12 748.915Z" fill="black" fill-opacity="0.47"/>
<path d="M1682.9 735.927C1689.06 746.306 1685.49 759.813 1674.92 766.095C1664.35 772.377 1650.78 769.056 1644.61 758.676C1638.44 748.297 1642.01 734.79 1652.59 728.508C1663.16 722.226 1676.73 725.547 1682.9 735.927ZM1651.52 754.569C1655.46 761.2 1664.14 763.323 1670.89 759.309C1677.64 755.295 1679.92 746.666 1675.98 740.034C1672.04 733.403 1663.37 731.28 1656.62 735.294C1649.86 739.308 1647.58 747.938 1651.52 754.569Z" fill="black"/>
<path d="M1679.53 709.659L1672.42 697.687C1670.91 695.153 1671.91 691.873 1674.58 690.613L1863.71 601.167" stroke="black" stroke-width="5" stroke-linecap="round" stroke-linejoin="round"/>
<path d="M1791.5 479.651L1558.11 592.511L1658.63 658.045L1828.64 542.164L1791.5 479.651Z" fill="#145F88" stroke="black"/>
<path d="M1650.75 653.308L1824.83 535.738" stroke="black" stroke-width="3"/>
<path d="M1559.51 591.684L1789.44 479.354M1805.23 505.939L1600.94 621.832" stroke="black" stroke-width="3"/>
<path d="M1652.13 726.894L1641.84 709.569L1657.81 658.968M1657.81 658.968L1545.59 584.031M1657.81 658.968L1829.15 543.02L1784.3 467.548L1545.59 584.031M1505 576.039L1526 570.947L1545.59 584.031" stroke="black" stroke-width="5" stroke-linecap="round" stroke-linejoin="round"/>
<path d="M1664.1 747.095L1652.11 726.909L1668.12 717.396L1664.1 747.095Z" fill="black" stroke="black"/>
<path d="M1854.54 634.871L1842.13 613.989L1858.14 604.476L1854.54 634.871Z" fill="black" stroke="black" stroke-linecap="round" stroke-linejoin="round"/>
<mask id="path-157-inside-9" fill="white">
<path d="M1721.36 670.687C1716.19 673.759 1709.97 674.578 1704.06 672.964C1698.16 671.351 1693.06 667.437 1689.87 662.083C1686.69 656.729 1685.69 650.375 1687.1 644.417C1688.51 638.46 1692.2 633.388 1697.37 630.316L1699.27 633.52C1694.92 636.104 1691.82 640.371 1690.63 645.383C1689.45 650.395 1690.29 655.741 1692.97 660.245C1695.64 664.748 1699.94 668.041 1704.91 669.399C1709.87 670.756 1715.11 670.067 1719.45 667.483L1721.36 670.687Z"/>
</mask>
<path d="M1721.36 670.687C1716.19 673.759 1709.97 674.578 1704.06 672.964C1698.16 671.351 1693.06 667.437 1689.87 662.083C1686.69 656.729 1685.69 650.375 1687.1 644.417C1688.51 638.46 1692.2 633.388 1697.37 630.316L1699.27 633.52C1694.92 636.104 1691.82 640.371 1690.63 645.383C1689.45 650.395 1690.29 655.741 1692.97 660.245C1695.64 664.748 1699.94 668.041 1704.91 669.399C1709.87 670.756 1715.11 670.067 1719.45 667.483L1721.36 670.687Z" fill="black" stroke="black" stroke-width="16" mask="url(#path-157-inside-9)"/>
<path d="M1683.96 531.141L1726.28 602.365M1743.64 502.142L1775.19 568.773M1614.19 564.838L1687.51 628.641" stroke="black" stroke-width="2"/>
<path d="M1580.55 606.492L1797.24 490.908" stroke="black" stroke-width="2"/>
<path d="M1658.14 659.523L1653.42 699.548L1663.64 716.742" stroke="black" stroke-width="5"/>
<path d="M1629.01 638.913L1814.05 522.361" stroke="black" stroke-width="2"/>
</g>
<g filter="url(#filter9_d)">
<path d="M993.688 683.103C989.53 698.624 998.74 714.577 1014.26 718.736C1029.78 722.895 1045.74 713.684 1049.89 698.163C1054.05 682.642 1044.84 666.689 1029.32 662.53C1013.8 658.371 997.847 667.582 993.688 683.103ZM1039.75 695.444C1037.09 705.361 1026.9 711.245 1016.98 708.588C1007.06 705.931 1001.18 695.738 1003.84 685.822C1006.49 675.906 1016.69 670.021 1026.6 672.678C1036.52 675.335 1042.4 685.528 1039.75 695.444Z" fill="black" fill-opacity="0.5"/>
<path d="M1004.17 686.544C1000.01 702.065 1009.22 718.018 1024.74 722.177C1040.26 726.336 1056.22 717.125 1060.37 701.604C1064.53 686.083 1055.32 670.13 1039.8 665.971C1024.28 661.812 1008.33 671.023 1004.17 686.544ZM1050.23 698.885C1047.57 708.802 1037.38 714.686 1027.46 712.029C1017.54 709.372 1011.66 699.179 1014.32 689.263C1016.97 679.347 1027.17 673.462 1037.08 676.119C1047 678.776 1052.88 688.969 1050.23 698.885Z" fill="black"/>
<path d="M1319.62 737.553L1009.11 655.828" stroke="black" stroke-width="5" stroke-linecap="round" stroke-linejoin="round"/>
<path d="M1284.31 761.061C1280.23 776.299 1289.5 792.024 1305.02 796.183C1320.54 800.341 1336.44 791.359 1340.52 776.121C1344.6 760.882 1335.33 745.158 1319.81 740.999C1304.29 736.84 1288.4 745.822 1284.31 761.061ZM1330.37 773.402C1327.76 783.138 1317.61 788.877 1307.69 786.22C1297.78 783.562 1291.85 773.516 1294.46 763.78C1297.07 754.044 1307.22 748.305 1317.14 750.962C1327.06 753.619 1332.98 763.666 1330.37 773.402Z" fill="black"/>
<path d="M1271.5 756.993C1267.41 772.232 1276.68 787.957 1292.2 792.115C1307.73 796.274 1323.62 787.292 1327.7 772.054C1331.78 756.815 1322.51 741.09 1306.99 736.932C1291.47 732.773 1275.58 741.755 1271.5 756.993ZM1317.55 769.335C1314.94 779.071 1304.79 784.809 1294.87 782.152C1284.96 779.495 1279.03 769.449 1281.64 759.712C1284.25 749.976 1294.41 744.238 1304.32 746.895C1314.24 749.552 1320.16 759.599 1317.55 769.335Z" fill="black" fill-opacity="0.47"/>
<path d="M1284.31 761.061C1280.23 776.299 1289.5 792.024 1305.02 796.183C1320.54 800.341 1336.44 791.359 1340.52 776.121C1344.6 760.882 1335.33 745.158 1319.81 740.999C1304.29 736.84 1288.4 745.822 1284.31 761.061ZM1330.37 773.402C1327.76 783.138 1317.61 788.877 1307.69 786.22C1297.78 783.562 1291.85 773.516 1294.46 763.78C1297.07 754.044 1307.22 748.305 1317.14 750.962C1327.06 753.619 1332.98 763.666 1330.37 773.402Z" fill="black"/>
<path d="M1279.25 726.829L1284.39 707.626C1285.15 704.778 1283.3 701.892 1280.4 701.401L1009.18 655.576" stroke="black" stroke-width="5" stroke-linecap="round" stroke-linejoin="round"/>
<path d="M1056.98 477.171L1390.49 536.497L1287.26 654.512L1032.39 568.949L1056.98 477.171Z" fill="#145F88" stroke="black"/>
<path d="M1295.49 645.764L1034.92 559.515" stroke="black" stroke-width="3"/>
<path d="M1388.44 535.949L1059.47 476.067M1049.01 515.098L1347 588.538" stroke="black" stroke-width="3"/>
<path d="M1319.81 738.808L1326.62 713.372L1288.61 655.384M1288.61 655.384L1403.23 521.399M1288.61 655.384L1032.06 570.207L1061.75 459.401L1403.23 521.399M1451.46 496.975L1423.25 498.004L1403.23 521.399" stroke="black" stroke-width="5" stroke-linecap="round" stroke-linejoin="round"/>
<path d="M1311.9 768.454L1319.85 738.818L1296.34 732.52L1311.9 768.454Z" fill="black" stroke="black"/>
<path d="M1032.65 694.722L1040.86 664.064L1017.36 657.766L1032.65 694.722Z" fill="black" stroke="black" stroke-linecap="round" stroke-linejoin="round"/>
<mask id="path-175-inside-10" fill="white">
<path d="M1212.84 692.62C1220.43 694.654 1228.54 693.482 1235.4 689.362C1242.25 685.242 1247.29 678.512 1249.39 670.652C1251.5 662.792 1250.5 654.446 1246.63 647.45C1242.75 640.455 1236.31 635.382 1228.72 633.349L1227.46 638.053C1233.84 639.764 1239.26 644.031 1242.52 649.916C1245.78 655.801 1246.62 662.822 1244.85 669.435C1243.08 676.047 1238.84 681.709 1233.08 685.175C1227.31 688.641 1220.48 689.627 1214.1 687.916L1212.84 692.62Z"/>
</mask>
<path d="M1212.84 692.62C1220.43 694.654 1228.54 693.482 1235.4 689.362C1242.25 685.242 1247.29 678.512 1249.39 670.652C1251.5 662.792 1250.5 654.446 1246.63 647.45C1242.75 640.455 1236.31 635.382 1228.72 633.349L1227.46 638.053C1233.84 639.764 1239.26 644.031 1242.52 649.916C1245.78 655.801 1246.62 662.822 1244.85 669.435C1243.08 676.047 1238.84 681.709 1233.08 685.175C1227.31 688.641 1220.48 689.627 1214.1 687.916L1212.84 692.62Z" fill="black" stroke="black" stroke-width="16" mask="url(#path-175-inside-10)"/>
<path d="M1210.48 503.861L1182.46 608.43M1125.14 488.517L1109.05 583.494M1310.16 521.544L1240.53 627.751" stroke="black" stroke-width="2"/>
<path d="M1367.22 562.025L1053.74 493.364" stroke="black" stroke-width="2"/>
<path d="M1288.4 656.196L1308.5 704.87L1301.74 730.113" stroke="black" stroke-width="5"/>
<path d="M1317.74 619.962L1043.74 538.876" stroke="black" stroke-width="2"/>
</g>
<g filter="url(#filter10_d)">
<path d="M911.268 619.684C917.416 630.334 913.767 643.952 903.118 650.1C892.468 656.249 878.85 652.6 872.702 641.95C866.553 631.301 870.202 617.683 880.852 611.534C891.501 605.386 905.119 609.035 911.268 619.684ZM879.664 637.93C883.593 644.735 892.293 647.066 899.098 643.137C905.902 639.209 908.233 630.509 904.305 623.704C900.376 616.9 891.676 614.569 884.872 618.497C878.067 622.426 875.736 631.126 879.664 637.93Z" fill="black" fill-opacity="0.5"/>
<path d="M904.202 624.304C910.35 634.954 906.702 648.571 896.052 654.72C885.402 660.869 871.784 657.22 865.636 646.57C859.487 635.92 863.136 622.302 873.786 616.154C884.435 610.005 898.053 613.654 904.202 624.304ZM872.599 642.55C876.527 649.354 885.228 651.685 892.032 647.757C898.836 643.829 901.167 635.128 897.239 628.324C893.31 621.52 884.61 619.188 877.806 623.117C871.001 627.045 868.67 635.746 872.599 642.55Z" fill="black"/>
<path d="M681.115 724.495L894.462 602.577" stroke="black" stroke-width="5" stroke-linecap="round" stroke-linejoin="round"/>
<path d="M711.87 734.879C717.907 745.335 714.168 758.796 703.518 764.945C692.868 771.093 679.341 767.601 673.304 757.145C667.267 746.689 671.007 733.228 681.657 727.08C692.306 720.931 705.833 724.423 711.87 734.879ZM680.267 753.125C684.124 759.806 692.767 762.037 699.571 758.108C706.375 754.18 708.764 745.58 704.907 738.899C701.05 732.219 692.408 729.988 685.604 733.916C678.799 737.844 676.41 746.445 680.267 753.125Z" fill="black"/>
<path d="M720.54 729.334C726.577 739.79 722.837 753.251 712.187 759.399C701.538 765.548 688.01 762.056 681.974 751.6C675.937 741.144 679.676 727.683 690.326 721.534C700.976 715.386 714.503 718.878 720.54 729.334ZM688.937 747.58C692.793 754.26 701.436 756.491 708.24 752.563C715.045 748.634 717.434 740.034 713.577 733.354C709.72 726.673 701.077 724.442 694.273 728.371C687.469 732.299 685.08 740.899 688.937 747.58Z" fill="black" fill-opacity="0.47"/>
<path d="M711.87 734.879C717.907 745.335 714.168 758.796 703.518 764.945C692.868 771.093 679.341 767.601 673.304 757.145C667.267 746.689 671.007 733.228 681.657 727.08C692.306 720.931 705.833 724.423 711.87 734.879ZM680.267 753.125C684.124 759.806 692.767 762.037 699.571 758.108C706.375 754.18 708.764 745.58 704.907 738.899C701.05 732.219 692.408 729.988 685.604 733.916C678.799 737.844 676.41 746.445 680.267 753.125Z" fill="black"/>
<path d="M708.835 708.571L701.872 696.511C700.399 693.958 701.442 690.691 704.122 689.464L894.363 602.404" stroke="black" stroke-width="5" stroke-linecap="round" stroke-linejoin="round"/>
<path d="M823.687 479.99L588.902 589.905L688.586 656.698L860.045 542.964L823.687 479.99Z" fill="#145F88" stroke="black"/>
<path d="M680.769 651.862L856.308 536.491" stroke="black" stroke-width="3"/>
<path d="M590.304 589.095L821.63 479.666M837.093 506.448L631.353 619.763" stroke="black" stroke-width="3"/>
<path d="M681.223 725.46L671.146 708.007L687.758 657.611M687.758 657.611L576.489 581.268M687.758 657.611L860.543 543.827L816.647 467.797L576.489 581.268M536 572.766L557.061 567.939L576.489 581.268" stroke="black" stroke-width="5" stroke-linecap="round" stroke-linejoin="round"/>
<path d="M692.938 745.81L681.197 725.475L697.325 716.164L692.938 745.81Z" fill="black" stroke="black"/>
<path d="M884.771 635.99L872.625 614.954L888.753 605.643L884.771 635.99Z" fill="black" stroke="black" stroke-linecap="round" stroke-linejoin="round"/>
<mask id="path-193-inside-11" fill="white">
<path d="M751.151 670.128C745.944 673.135 739.713 673.875 733.829 672.188C727.945 670.5 722.891 666.522 719.777 661.129C716.663 655.736 715.746 649.369 717.226 643.43C718.706 637.491 722.463 632.465 727.67 629.459L729.534 632.686C725.153 635.215 721.993 639.443 720.747 644.44C719.502 649.437 720.274 654.793 722.893 659.33C725.513 663.867 729.765 667.213 734.715 668.633C739.665 670.053 744.907 669.43 749.287 666.9L751.151 670.128Z"/>
</mask>
<path d="M751.151 670.128C745.944 673.135 739.713 673.875 733.829 672.188C727.945 670.5 722.891 666.522 719.777 661.129C716.663 655.736 715.746 649.369 717.226 643.43C718.706 637.491 722.463 632.465 727.67 629.459L729.534 632.686C725.153 635.215 721.993 639.443 720.747 644.44C719.502 649.437 720.274 654.793 722.893 659.33C725.513 663.867 729.765 667.213 734.715 668.633C739.665 670.053 744.907 669.43 749.287 666.9L751.151 670.128Z" fill="black" stroke="black" stroke-width="16" mask="url(#path-193-inside-11)"/>
<path d="M715.508 530.123L756.933 601.874M775.553 501.877L806.262 568.9M645.324 562.939L717.831 627.66" stroke="black" stroke-width="2"/>
<path d="M611.16 604.167L829.292 491.318" stroke="black" stroke-width="2"/>
<path d="M659.212 637.195L845.703 522.98" stroke="black" stroke-width="2"/>
</g>
<g filter="url(#filter11_d)">
<path d="M15.6884 678.103C11.5296 693.624 20.7403 709.577 36.2611 713.736C51.7819 717.895 67.7354 708.684 71.8942 693.163C76.053 677.642 66.8422 661.689 51.3214 657.53C35.8006 653.371 19.8472 662.582 15.6884 678.103ZM61.7465 690.444C59.0894 700.361 48.8966 706.245 38.9802 703.588C29.0638 700.931 23.1789 690.738 25.836 680.822C28.4931 670.906 38.686 665.021 48.6024 667.678C58.5188 670.335 64.4036 680.528 61.7465 690.444Z" fill="black" fill-opacity="0.5"/>
<path d="M26.1687 681.544C22.01 697.065 31.2207 713.018 46.7415 717.177C62.2623 721.336 78.2157 712.125 82.3745 696.604C86.5333 681.083 77.3226 665.13 61.8018 660.971C46.281 656.812 30.3275 666.023 26.1687 681.544ZM72.2269 693.885C69.5698 703.802 59.3769 709.686 49.4605 707.029C39.5441 704.372 33.6593 694.179 36.3164 684.263C38.9735 674.347 49.1663 668.462 59.0827 671.119C68.9991 673.776 74.884 683.969 72.2269 693.885Z" fill="black"/>
<path d="M341.618 732.553L31.1138 650.828" stroke="black" stroke-width="5" stroke-linecap="round" stroke-linejoin="round"/>
<path d="M306.313 756.061C302.229 771.299 311.501 787.024 327.022 791.183C342.543 795.341 358.435 786.359 362.518 771.121C366.602 755.882 357.33 740.158 341.809 735.999C326.288 731.84 310.396 740.822 306.313 756.061ZM352.371 768.402C349.762 778.138 339.608 783.877 329.692 781.22C319.775 778.562 313.851 768.516 316.46 758.78C319.069 749.044 329.223 743.305 339.139 745.962C349.056 748.619 354.98 758.666 352.371 768.402Z" fill="black"/>
<path d="M293.495 751.993C289.412 767.232 298.684 782.957 314.205 787.116C329.726 791.274 345.618 782.292 349.701 767.054C353.784 751.815 344.512 736.09 328.991 731.932C313.471 727.773 297.578 736.755 293.495 751.993ZM339.553 764.335C336.945 774.071 326.791 779.809 316.874 777.152C306.958 774.495 301.034 764.449 303.643 754.713C306.252 744.976 316.405 739.238 326.322 741.895C336.238 744.552 342.162 754.599 339.553 764.335Z" fill="black" fill-opacity="0.47"/>
<path d="M306.313 756.061C302.229 771.299 311.501 787.024 327.022 791.183C342.543 795.341 358.435 786.359 362.518 771.121C366.602 755.882 357.33 740.158 341.809 735.999C326.288 731.84 310.396 740.822 306.313 756.061ZM352.371 768.402C349.762 778.138 339.608 783.877 329.692 781.22C319.775 778.562 313.851 768.516 316.46 758.78C319.069 749.044 329.223 743.305 339.139 745.962C349.056 748.619 354.98 758.666 352.371 768.402Z" fill="black"/>
<path d="M301.246 721.829L306.392 702.626C307.155 699.778 305.301 696.892 302.395 696.401L31.1808 650.576" stroke="black" stroke-width="5" stroke-linecap="round" stroke-linejoin="round"/>
<path d="M78.9841 472.171L412.487 531.497L309.26 649.512L54.3922 563.949L78.9841 472.171Z" fill="#145F88" stroke="black"/>
<path d="M317.491 640.764L56.9202 554.515" stroke="black" stroke-width="3"/>
<path d="M410.443 530.949L81.4705 471.067M71.0123 510.098L369.005 583.538" stroke="black" stroke-width="3"/>
<path d="M341.809 733.808L348.625 708.372L310.614 650.384M310.614 650.384L425.233 516.399M310.614 650.384L54.0554 565.207L83.7457 454.401L425.233 516.399M473.46 491.975L445.246 493.004L425.233 516.399" stroke="black" stroke-width="5" stroke-linecap="round" stroke-linejoin="round"/>
<path d="M333.905 763.454L341.845 733.818L318.341 727.52L333.905 763.454Z" fill="black" stroke="black"/>
<path d="M54.6456 689.722L62.8604 659.064L39.3561 652.766L54.6456 689.722Z" fill="black" stroke="black" stroke-linecap="round" stroke-linejoin="round"/>
<mask id="path-210-inside-12" fill="white">
<path d="M234.837 687.621C242.426 689.654 250.541 688.482 257.396 684.362C264.251 680.242 269.286 673.512 271.392 665.652C273.498 657.792 272.503 649.446 268.626 642.451C264.749 635.455 258.308 630.382 250.719 628.349L249.458 633.053C255.843 634.764 261.262 639.031 264.523 644.916C267.785 650.801 268.622 657.823 266.85 664.435C265.078 671.047 260.843 676.709 255.076 680.175C249.308 683.641 242.482 684.627 236.097 682.916L234.837 687.621Z"/>
</mask>
<path d="M234.837 687.621C242.426 689.654 250.541 688.482 257.396 684.362C264.251 680.242 269.286 673.512 271.392 665.652C273.498 657.792 272.503 649.446 268.626 642.451C264.749 635.455 258.308 630.382 250.719 628.349L249.458 633.053C255.843 634.764 261.262 639.031 264.523 644.916C267.785 650.801 268.622 657.823 266.85 664.435C265.078 671.047 260.843 676.709 255.076 680.175C249.308 683.641 242.482 684.627 236.097 682.916L234.837 687.621Z" fill="black" stroke="black" stroke-width="16" mask="url(#path-210-inside-12)"/>
<path d="M232.475 498.861L204.456 603.43M147.138 483.517L131.046 578.494M332.156 516.544L262.529 622.751" stroke="black" stroke-width="2"/>
<path d="M389.217 557.025L75.7407 488.364" stroke="black" stroke-width="2"/>
<path d="M310.402 651.196L330.502 699.87L323.738 725.113" stroke="black" stroke-width="5"/>
<path d="M339.739 614.962L65.7363 533.876" stroke="black" stroke-width="2"/>
</g>
<g filter="url(#filter12_d)">
<path d="M1476.52 293.995C1472.99 309.672 1482.84 325.239 1498.52 328.765C1514.2 332.291 1529.76 322.442 1533.29 306.765C1536.82 291.088 1526.97 275.521 1511.29 271.995C1495.61 268.469 1480.05 278.318 1476.52 293.995ZM1523.04 304.459C1520.79 314.475 1510.84 320.768 1500.82 318.515C1490.81 316.262 1484.52 306.317 1486.77 296.301C1489.02 286.285 1498.97 279.991 1508.98 282.244C1519 284.497 1525.29 294.443 1523.04 304.459Z" fill="black" fill-opacity="0.5"/>
<path d="M1487.13 297.008C1483.6 312.685 1493.45 328.252 1509.13 331.778C1524.81 335.305 1540.37 325.455 1543.9 309.778C1547.43 294.102 1537.58 278.535 1521.9 275.008C1506.22 271.482 1490.66 281.332 1487.13 297.008ZM1533.65 307.473C1531.4 317.489 1521.45 323.782 1511.44 321.529C1501.42 319.276 1495.13 309.33 1497.38 299.314C1499.63 289.298 1509.58 283.005 1519.59 285.258C1529.61 287.511 1535.9 297.457 1533.65 307.473Z" fill="black"/>
<path d="M1804.39 335.19L1490.83 266.118" stroke="black" stroke-width="5" stroke-linecap="round" stroke-linejoin="round"/>
<path d="M1770.06 360.109C1766.6 375.501 1776.5 390.837 1792.18 394.363C1807.86 397.89 1823.37 388.271 1826.83 372.879C1830.3 357.488 1820.39 342.152 1804.72 338.626C1789.04 335.099 1773.53 344.718 1770.06 360.109ZM1816.58 370.574C1814.37 380.408 1804.46 386.553 1794.44 384.3C1784.43 382.047 1778.1 372.249 1780.31 362.415C1782.53 352.581 1792.44 346.436 1802.45 348.689C1812.47 350.942 1818.8 360.74 1816.58 370.574Z" fill="black"/>
<path d="M1757.09 356.565C1753.63 371.957 1763.53 387.293 1779.21 390.819C1794.89 394.345 1810.4 384.727 1813.86 369.335C1817.32 353.943 1807.42 338.608 1791.75 335.081C1776.07 331.555 1760.55 341.174 1757.09 356.565ZM1803.61 367.03C1801.4 376.863 1791.49 383.009 1781.47 380.756C1771.46 378.503 1765.13 368.705 1767.34 358.871C1769.55 349.037 1779.47 342.891 1789.48 345.144C1799.5 347.397 1805.82 357.196 1803.61 367.03Z" fill="black" fill-opacity="0.47"/>
<path d="M1770.06 360.109C1766.6 375.501 1776.5 390.837 1792.18 394.363C1807.86 397.89 1823.37 388.271 1826.83 372.879C1830.3 357.488 1820.39 342.152 1804.72 338.626C1789.04 335.099 1773.53 344.718 1770.06 360.109ZM1816.58 370.574C1814.37 380.408 1804.46 386.553 1794.44 384.3C1784.43 382.047 1778.1 372.249 1780.31 362.415C1782.53 352.581 1792.44 346.436 1802.45 348.689C1812.47 350.942 1818.8 360.74 1816.58 370.574Z" fill="black"/>
<path d="M1763.61 326.112L1767.98 306.715C1768.62 303.839 1766.66 301.031 1763.73 300.658L1490.88 265.862" stroke="black" stroke-width="5" stroke-linecap="round" stroke-linejoin="round"/>
<path d="M1531.42 85.667L1867.05 131.427L1768.69 253.529L1510.56 178.367L1531.42 85.667Z" fill="#145F88" stroke="black"/>
<path d="M1776.56 244.455L1512.71 168.837" stroke="black" stroke-width="3"/>
<path d="M1864.98 130.963L1533.86 84.4631M1524.99 123.886L1825.71 185.188" stroke="black" stroke-width="3"/>
<path d="M1804.63 336.437L1810.41 310.745L1770.08 254.345M1770.08 254.345L1879.17 115.825M1770.08 254.345L1510.28 179.636L1535.45 67.7184L1879.17 115.825M1926.37 89.4661L1898.22 91.6384L1879.17 115.825" stroke="black" stroke-width="5" stroke-linecap="round" stroke-linejoin="round"/>
<path d="M1797.93 366.378L1804.67 336.445L1780.93 331.105L1797.93 366.378Z" fill="black" stroke="black"/>
<path d="M1515.92 304.026L1522.88 273.06L1499.14 267.72L1515.92 304.026Z" fill="black" stroke="black" stroke-linecap="round" stroke-linejoin="round"/>
<mask id="path-228-inside-13" fill="white">
<path d="M1695.87 294.623C1703.54 296.347 1711.6 294.847 1718.28 290.452C1724.96 286.058 1729.72 279.129 1731.51 271.19C1733.29 263.252 1731.96 254.953 1727.8 248.12C1723.65 241.287 1717 236.48 1709.34 234.756L1708.27 239.507C1714.72 240.958 1720.31 245.002 1723.8 250.75C1727.3 256.498 1728.42 263.48 1726.92 270.158C1725.42 276.837 1721.42 282.666 1715.79 286.363C1710.17 290.06 1703.39 291.322 1696.94 289.871L1695.87 294.623Z"/>
</mask>
<path d="M1695.87 294.623C1703.54 296.347 1711.6 294.847 1718.28 290.452C1724.96 286.058 1729.72 279.129 1731.51 271.19C1733.29 263.252 1731.96 254.953 1727.8 248.12C1723.65 241.287 1717 236.48 1709.34 234.756L1708.27 239.507C1714.72 240.958 1720.31 245.002 1723.8 250.75C1727.3 256.498 1728.42 263.48 1726.92 270.158C1725.42 276.837 1721.42 282.666 1715.79 286.363C1710.17 290.06 1703.39 291.322 1696.94 289.871L1695.87 294.623Z" fill="black" stroke="black" stroke-width="16" mask="url(#path-228-inside-13)"/>
<path d="M1685.86 106.114L1662.1 211.732M1599.97 94.2412L1587.74 189.792M1786.18 119.742L1720.91 228.684" stroke="black" stroke-width="2"/>
<path d="M1844.83 157.878L1528.83 101.978" stroke="black" stroke-width="2"/>
<path d="M1769.9 255.166L1791.96 302.985L1786.22 328.481" stroke="black" stroke-width="5"/>
<path d="M1797.74 217.772L1520.68 147.858" stroke="black" stroke-width="2"/>
</g>
<g filter="url(#filter13_d)">
<path d="M1406.27 226.684C1412.42 237.334 1408.77 250.952 1398.12 257.1C1387.47 263.249 1373.85 259.6 1367.7 248.95C1361.55 238.301 1365.2 224.683 1375.85 218.534C1386.5 212.386 1400.12 216.035 1406.27 226.684ZM1374.66 244.93C1378.59 251.735 1387.29 254.066 1394.1 250.137C1400.9 246.209 1403.23 237.509 1399.3 230.704C1395.38 223.9 1386.68 221.569 1379.87 225.497C1373.07 229.426 1370.74 238.126 1374.66 244.93Z" fill="black" fill-opacity="0.5"/>
<path d="M1399.2 231.304C1405.35 241.954 1401.7 255.571 1391.05 261.72C1380.4 267.869 1366.78 264.22 1360.64 253.57C1354.49 242.92 1358.14 229.302 1368.79 223.154C1379.44 217.005 1393.05 220.654 1399.2 231.304ZM1367.6 249.55C1371.53 256.354 1380.23 258.685 1387.03 254.757C1393.84 250.829 1396.17 242.128 1392.24 235.324C1388.31 228.52 1379.61 226.188 1372.81 230.117C1366 234.045 1363.67 242.746 1367.6 249.55Z" fill="black"/>
<path d="M1176.11 331.495L1389.46 209.577" stroke="black" stroke-width="5" stroke-linecap="round" stroke-linejoin="round"/>
<path d="M1206.87 341.879C1212.91 352.335 1209.17 365.796 1198.52 371.945C1187.87 378.093 1174.34 374.601 1168.3 364.145C1162.27 353.689 1166.01 340.228 1176.66 334.08C1187.31 327.931 1200.83 331.423 1206.87 341.879ZM1175.27 360.125C1179.12 366.806 1187.77 369.037 1194.57 365.108C1201.38 361.18 1203.76 352.58 1199.91 345.899C1196.05 339.219 1187.41 336.988 1180.6 340.916C1173.8 344.844 1171.41 353.445 1175.27 360.125Z" fill="black"/>
<path d="M1215.54 336.334C1221.58 346.79 1217.84 360.251 1207.19 366.399C1196.54 372.548 1183.01 369.056 1176.97 358.6C1170.94 348.144 1174.68 334.683 1185.33 328.534C1195.98 322.386 1209.5 325.878 1215.54 336.334ZM1183.94 354.58C1187.79 361.26 1196.44 363.491 1203.24 359.563C1210.04 355.634 1212.43 347.034 1208.58 340.354C1204.72 333.673 1196.08 331.442 1189.27 335.371C1182.47 339.299 1180.08 347.899 1183.94 354.58Z" fill="black" fill-opacity="0.47"/>
<path d="M1206.87 341.879C1212.91 352.335 1209.17 365.796 1198.52 371.945C1187.87 378.093 1174.34 374.601 1168.3 364.145C1162.27 353.689 1166.01 340.228 1176.66 334.08C1187.31 327.931 1200.83 331.423 1206.87 341.879ZM1175.27 360.125C1179.12 366.806 1187.77 369.037 1194.57 365.108C1201.38 361.18 1203.76 352.58 1199.91 345.899C1196.05 339.219 1187.41 336.988 1180.6 340.916C1173.8 344.844 1171.41 353.445 1175.27 360.125Z" fill="black"/>
<path d="M1203.84 315.571L1196.87 303.511C1195.4 300.958 1196.44 297.691 1199.12 296.464L1389.36 209.404" stroke="black" stroke-width="5" stroke-linecap="round" stroke-linejoin="round"/>
<path d="M1318.69 86.99L1083.9 196.905L1183.59 263.698L1355.05 149.964L1318.69 86.99Z" fill="#145F88" stroke="black"/>
<path d="M1175.77 258.862L1351.31 143.491" stroke="black" stroke-width="3"/>
<path d="M1085.3 196.095L1316.63 86.6664M1332.09 113.448L1126.35 226.763" stroke="black" stroke-width="3"/>
<path d="M1176.22 332.46L1166.15 315.007L1182.76 264.611M1182.76 264.611L1071.49 188.268M1182.76 264.611L1355.54 150.827L1311.65 74.7969L1071.49 188.268M1031 179.766L1052.06 174.939L1071.49 188.268" stroke="black" stroke-width="5" stroke-linecap="round" stroke-linejoin="round"/>
<path d="M1187.94 352.81L1176.2 332.475L1192.33 323.164L1187.94 352.81Z" fill="black" stroke="black"/>
<path d="M1379.77 242.99L1367.63 221.954L1383.75 212.643L1379.77 242.99Z" fill="black" stroke="black" stroke-linecap="round" stroke-linejoin="round"/>
<mask id="path-246-inside-14" fill="white">
<path d="M1246.15 277.128C1240.94 280.135 1234.71 280.875 1228.83 279.188C1222.95 277.5 1217.89 273.522 1214.78 268.129C1211.66 262.736 1210.75 256.369 1212.23 250.43C1213.71 244.491 1217.46 239.465 1222.67 236.459L1224.53 239.686C1220.15 242.215 1216.99 246.443 1215.75 251.44C1214.5 256.437 1215.27 261.793 1217.89 266.33C1220.51 270.867 1224.77 274.213 1229.72 275.633C1234.66 277.053 1239.91 276.43 1244.29 273.9L1246.15 277.128Z"/>
</mask>
<path d="M1246.15 277.128C1240.94 280.135 1234.71 280.875 1228.83 279.188C1222.95 277.5 1217.89 273.522 1214.78 268.129C1211.66 262.736 1210.75 256.369 1212.23 250.43C1213.71 244.491 1217.46 239.465 1222.67 236.459L1224.53 239.686C1220.15 242.215 1216.99 246.443 1215.75 251.44C1214.5 256.437 1215.27 261.793 1217.89 266.33C1220.51 270.867 1224.77 274.213 1229.72 275.633C1234.66 277.053 1239.91 276.43 1244.29 273.9L1246.15 277.128Z" fill="black" stroke="black" stroke-width="16" mask="url(#path-246-inside-14)"/>
<path d="M1210.51 137.123L1251.93 208.874M1270.55 108.877L1301.26 175.9M1140.32 169.939L1212.83 234.66" stroke="black" stroke-width="2"/>
<path d="M1106.16 211.167L1324.29 98.3177" stroke="black" stroke-width="2"/>
<path d="M1154.21 244.195L1340.7 129.98" stroke="black" stroke-width="2"/>
</g>
<g filter="url(#filter14_d)">
<path d="M497.688 297.103C493.53 312.624 502.74 328.577 518.261 332.736C533.782 336.895 549.735 327.684 553.894 312.163C558.053 296.642 548.842 280.689 533.321 276.53C517.801 272.371 501.847 281.582 497.688 297.103ZM543.747 309.444C541.089 319.361 530.897 325.245 520.98 322.588C511.064 319.931 505.179 309.738 507.836 299.822C510.493 289.906 520.686 284.021 530.602 286.678C540.519 289.335 546.404 299.528 543.747 309.444Z" fill="black" fill-opacity="0.5"/>
<path d="M508.169 300.544C504.01 316.065 513.221 332.018 528.741 336.177C544.262 340.336 560.216 331.125 564.375 315.604C568.533 300.083 559.323 284.13 543.802 279.971C528.281 275.812 512.328 285.023 508.169 300.544ZM554.227 312.885C551.57 322.802 541.377 328.686 531.461 326.029C521.544 323.372 515.659 313.179 518.316 303.263C520.973 293.347 531.166 287.462 541.083 290.119C550.999 292.776 556.884 302.969 554.227 312.885Z" fill="black"/>
<path d="M823.618 351.553L513.114 269.828" stroke="black" stroke-width="5" stroke-linecap="round" stroke-linejoin="round"/>
<path d="M788.313 375.061C784.229 390.299 793.501 406.024 809.022 410.183C824.543 414.341 840.435 405.359 844.518 390.121C848.602 374.882 839.33 359.158 823.809 354.999C808.288 350.84 792.396 359.822 788.313 375.061ZM834.371 387.402C831.762 397.138 821.608 402.877 811.692 400.22C801.775 397.562 795.851 387.516 798.46 377.78C801.069 368.044 811.223 362.305 821.139 364.962C831.056 367.619 836.98 377.666 834.371 387.402Z" fill="black"/>
<path d="M775.495 370.993C771.412 386.232 780.684 401.957 796.205 406.116C811.726 410.274 827.618 401.292 831.701 386.054C835.784 370.815 826.512 355.09 810.991 350.932C795.471 346.773 779.578 355.755 775.495 370.993ZM821.553 383.335C818.945 393.071 808.791 398.809 798.874 396.152C788.958 393.495 783.034 383.449 785.643 373.713C788.252 363.976 798.405 358.238 808.322 360.895C818.238 363.552 824.162 373.599 821.553 383.335Z" fill="black" fill-opacity="0.47"/>
<path d="M788.313 375.061C784.229 390.299 793.501 406.024 809.022 410.183C824.543 414.341 840.435 405.359 844.518 390.121C848.602 374.882 839.33 359.158 823.809 354.999C808.288 350.84 792.396 359.822 788.313 375.061ZM834.371 387.402C831.762 397.138 821.608 402.877 811.692 400.22C801.775 397.562 795.851 387.516 798.46 377.78C801.069 368.044 811.223 362.305 821.139 364.962C831.056 367.619 836.98 377.666 834.371 387.402Z" fill="black"/>
<path d="M783.246 340.829L788.392 321.626C789.155 318.778 787.301 315.892 784.395 315.401L513.181 269.576" stroke="black" stroke-width="5" stroke-linecap="round" stroke-linejoin="round"/>
<path d="M560.984 91.1711L894.487 150.497L791.26 268.512L536.392 182.949L560.984 91.1711Z" fill="#145F88" stroke="black"/>
<path d="M799.491 259.764L538.92 173.515" stroke="black" stroke-width="3"/>
<path d="M892.443 149.949L563.471 90.0671M553.012 129.098L851.005 202.538" stroke="black" stroke-width="3"/>
<path d="M823.809 352.808L830.625 327.372L792.614 269.384M792.614 269.384L907.233 135.399M792.614 269.384L536.055 184.207L565.746 73.4009L907.233 135.399M955.46 110.975L927.246 112.004L907.233 135.399" stroke="black" stroke-width="5" stroke-linecap="round" stroke-linejoin="round"/>
<path d="M815.905 382.454L823.845 352.818L800.341 346.52L815.905 382.454Z" fill="black" stroke="black"/>
<path d="M536.646 308.722L544.86 278.064L521.356 271.766L536.646 308.722Z" fill="black" stroke="black" stroke-linecap="round" stroke-linejoin="round"/>
<mask id="path-263-inside-15" fill="white">
<path d="M716.837 306.621C724.426 308.654 732.541 307.482 739.396 303.362C746.251 299.242 751.286 292.512 753.392 284.652C755.498 276.792 754.503 268.446 750.626 261.451C746.749 254.455 740.308 249.382 732.719 247.349L731.458 252.053C737.843 253.764 743.262 258.031 746.523 263.916C749.785 269.801 750.622 276.823 748.85 283.435C747.078 290.047 742.843 295.709 737.076 299.175C731.308 302.641 724.482 303.627 718.097 301.916L716.837 306.621Z"/>
</mask>
<path d="M716.837 306.621C724.426 308.654 732.541 307.482 739.396 303.362C746.251 299.242 751.286 292.512 753.392 284.652C755.498 276.792 754.503 268.446 750.626 261.451C746.749 254.455 740.308 249.382 732.719 247.349L731.458 252.053C737.843 253.764 743.262 258.031 746.523 263.916C749.785 269.801 750.622 276.823 748.85 283.435C747.078 290.047 742.843 295.709 737.076 299.175C731.308 302.641 724.482 303.627 718.097 301.916L716.837 306.621Z" fill="black" stroke="black" stroke-width="16" mask="url(#path-263-inside-15)"/>
<path d="M714.475 117.861L686.456 222.43M629.138 102.517L613.046 197.494M814.156 135.544L744.529 241.751" stroke="black" stroke-width="2"/>
<path d="M871.217 176.025L557.741 107.364" stroke="black" stroke-width="2"/>
<path d="M792.402 270.196L812.502 318.87L805.738 344.113" stroke="black" stroke-width="5"/>
<path d="M821.739 233.962L547.736 152.876" stroke="black" stroke-width="2"/>
</g>
<g filter="url(#filter15_d)">
<path d="M421.268 230.684C427.416 241.334 423.767 254.952 413.118 261.1C402.468 267.249 388.85 263.6 382.702 252.95C376.553 242.301 380.202 228.683 390.852 222.534C401.501 216.386 415.119 220.035 421.268 230.684ZM389.664 248.93C393.593 255.735 402.293 258.066 409.098 254.137C415.902 250.209 418.233 241.509 414.305 234.704C410.376 227.9 401.676 225.569 394.872 229.497C388.067 233.426 385.736 242.126 389.664 248.93Z" fill="black" fill-opacity="0.5"/>
<path d="M414.202 235.304C420.35 245.954 416.702 259.571 406.052 265.72C395.402 271.869 381.784 268.22 375.636 257.57C369.487 246.92 373.136 233.302 383.786 227.154C394.435 221.005 408.053 224.654 414.202 235.304ZM382.599 253.55C386.527 260.354 395.228 262.685 402.032 258.757C408.836 254.829 411.167 246.128 407.239 239.324C403.311 232.52 394.61 230.188 387.806 234.117C381.002 238.045 378.67 246.746 382.599 253.55Z" fill="black"/>
<path d="M191.115 335.495L404.462 213.577" stroke="black" stroke-width="5" stroke-linecap="round" stroke-linejoin="round"/>
<path d="M221.87 345.879C227.907 356.335 224.168 369.796 213.518 375.945C202.868 382.093 189.341 378.601 183.304 368.145C177.267 357.689 181.007 344.228 191.657 338.08C202.306 331.931 215.833 335.423 221.87 345.879ZM190.267 364.125C194.124 370.806 202.767 373.037 209.571 369.108C216.375 365.18 218.764 356.58 214.907 349.899C211.05 343.219 202.408 340.988 195.604 344.916C188.799 348.844 186.41 357.445 190.267 364.125Z" fill="black"/>
<path d="M230.54 340.334C236.577 350.79 232.837 364.251 222.187 370.399C211.538 376.548 198.01 373.056 191.974 362.6C185.937 352.144 189.676 338.683 200.326 332.534C210.976 326.386 224.503 329.878 230.54 340.334ZM198.937 358.58C202.793 365.26 211.436 367.491 218.24 363.563C225.045 359.634 227.434 351.034 223.577 344.354C219.72 337.673 211.077 335.442 204.273 339.371C197.469 343.299 195.08 351.899 198.937 358.58Z" fill="black" fill-opacity="0.47"/>
<path d="M221.87 345.879C227.907 356.335 224.168 369.796 213.518 375.945C202.868 382.093 189.341 378.601 183.304 368.145C177.267 357.689 181.007 344.228 191.657 338.08C202.306 331.931 215.833 335.423 221.87 345.879ZM190.267 364.125C194.124 370.806 202.767 373.037 209.571 369.108C216.375 365.18 218.764 356.58 214.907 349.899C211.05 343.219 202.408 340.988 195.604 344.916C188.799 348.844 186.41 357.445 190.267 364.125Z" fill="black"/>
<path d="M218.835 319.571L211.872 307.511C210.399 304.958 211.442 301.691 214.122 300.464L404.363 213.404" stroke="black" stroke-width="5" stroke-linecap="round" stroke-linejoin="round"/>
<path d="M333.687 90.99L98.902 200.905L198.586 267.698L370.045 153.964L333.687 90.99Z" fill="#145F88" stroke="black"/>
<path d="M190.769 262.862L366.308 147.491" stroke="black" stroke-width="3"/>
<path d="M100.304 200.095L331.63 90.6664M347.093 117.448L141.353 230.763" stroke="black" stroke-width="3"/>
<path d="M191.223 336.46L181.146 319.007L197.758 268.611M197.758 268.611L86.4888 192.268M197.758 268.611L370.543 154.827L326.647 78.7969L86.4888 192.268M46 183.766L67.0608 178.939L86.4888 192.268" stroke="black" stroke-width="5" stroke-linecap="round" stroke-linejoin="round"/>
<path d="M202.938 356.81L191.198 336.475L207.325 327.164L202.938 356.81Z" fill="black" stroke="black"/>
<path d="M394.771 246.99L382.625 225.954L398.753 216.643L394.771 246.99Z" fill="black" stroke="black" stroke-linecap="round" stroke-linejoin="round"/>
<mask id="path-281-inside-16" fill="white">
<path d="M261.151 281.128C255.944 284.135 249.713 284.875 243.829 283.188C237.946 281.5 232.891 277.522 229.777 272.129C226.663 266.736 225.746 260.369 227.226 254.43C228.706 248.491 232.463 243.465 237.67 240.459L239.534 243.686C235.153 246.215 231.993 250.443 230.747 255.44C229.502 260.437 230.274 265.793 232.894 270.33C235.513 274.867 239.765 278.213 244.715 279.633C249.665 281.053 254.907 280.43 259.287 277.9L261.151 281.128Z"/>
</mask>
<path d="M261.151 281.128C255.944 284.135 249.713 284.875 243.829 283.188C237.946 281.5 232.891 277.522 229.777 272.129C226.663 266.736 225.746 260.369 227.226 254.43C228.706 248.491 232.463 243.465 237.67 240.459L239.534 243.686C235.153 246.215 231.993 250.443 230.747 255.44C229.502 260.437 230.274 265.793 232.894 270.33C235.513 274.867 239.765 278.213 244.715 279.633C249.665 281.053 254.907 280.43 259.287 277.9L261.151 281.128Z" fill="black" stroke="black" stroke-width="16" mask="url(#path-281-inside-16)"/>
<path d="M225.508 141.123L266.933 212.874M285.553 112.877L316.262 179.9M155.324 173.939L227.831 238.66" stroke="black" stroke-width="2"/>
<path d="M121.16 215.167L339.292 102.318" stroke="black" stroke-width="2"/>
<path d="M169.212 248.195L355.703 133.98" stroke="black" stroke-width="2"/>
</g>
<defs>
<filter id="filter0_d" x="1504.57" y="1188.64" width="400.63" height="365.831" filterUnits="userSpaceOnUse" color-interpolation-filters="sRGB">
<feFlood flood-opacity="0" result="BackgroundImageFix"/>
<feColorMatrix in="SourceAlpha" type="matrix" values="0 0 0 0 0 0 0 0 0 0 0 0 0 0 0 0 0 0 127 0"/>
<feOffset dx="4" dy="4"/>
<feGaussianBlur stdDeviation="2.5"/>
<feColorMatrix type="matrix" values="0 0 0 0 0 0 0 0 0 0 0 0 0 0 0 0 0 0 0.25 0"/>
<feBlend mode="normal" in2="BackgroundImageFix" result="effect1_dropShadow"/>
<feBlend mode="normal" in="SourceGraphic" in2="effect1_dropShadow" result="shape"/>
</filter>
<filter id="filter1_d" x="984.158" y="1156.97" width="478.365" height="419.746" filterUnits="userSpaceOnUse" color-interpolation-filters="sRGB">
<feFlood flood-opacity="0" result="BackgroundImageFix"/>
<feColorMatrix in="SourceAlpha" type="matrix" values="0 0 0 0 0 0 0 0 0 0 0 0 0 0 0 0 0 0 127 0"/>
<feOffset dx="4" dy="4"/>
<feGaussianBlur stdDeviation="2.5"/>
<feColorMatrix type="matrix" values="0 0 0 0 0 0 0 0 0 0 0 0 0 0 0 0 0 0 0.25 0"/>
<feBlend mode="normal" in2="BackgroundImageFix" result="effect1_dropShadow"/>
<feBlend mode="normal" in="SourceGraphic" in2="effect1_dropShadow" result="shape"/>
</filter>
<filter id="filter2_d" x="507.573" y="1199.64" width="400.63" height="365.831" filterUnits="userSpaceOnUse" color-interpolation-filters="sRGB">
<feFlood flood-opacity="0" result="BackgroundImageFix"/>
<feColorMatrix in="SourceAlpha" type="matrix" values="0 0 0 0 0 0 0 0 0 0 0 0 0 0 0 0 0 0 127 0"/>
<feOffset dx="4" dy="4"/>
<feGaussianBlur stdDeviation="2.5"/>
<feColorMatrix type="matrix" values="0 0 0 0 0 0 0 0 0 0 0 0 0 0 0 0 0 0 0.25 0"/>
<feBlend mode="normal" in2="BackgroundImageFix" result="effect1_dropShadow"/>
<feBlend mode="normal" in="SourceGraphic" in2="effect1_dropShadow" result="shape"/>
</filter>
<filter id="filter3_d" x="0.158203" y="1168.97" width="478.365" height="419.746" filterUnits="userSpaceOnUse" color-interpolation-filters="sRGB">
<feFlood flood-opacity="0" result="BackgroundImageFix"/>
<feColorMatrix in="SourceAlpha" type="matrix" values="0 0 0 0 0 0 0 0 0 0 0 0 0 0 0 0 0 0 127 0"/>
<feOffset dx="4" dy="4"/>
<feGaussianBlur stdDeviation="2.5"/>
<feColorMatrix type="matrix" values="0 0 0 0 0 0 0 0 0 0 0 0 0 0 0 0 0 0 0.25 0"/>
<feBlend mode="normal" in2="BackgroundImageFix" result="effect1_dropShadow"/>
<feBlend mode="normal" in="SourceGraphic" in2="effect1_dropShadow" result="shape"/>
</filter>
<filter id="filter4_d" x="1460.16" y="775.967" width="478.365" height="419.746" filterUnits="userSpaceOnUse" color-interpolation-filters="sRGB">
<feFlood flood-opacity="0" result="BackgroundImageFix"/>
<feColorMatrix in="SourceAlpha" type="matrix" values="0 0 0 0 0 0 0 0 0 0 0 0 0 0 0 0 0 0 127 0"/>
<feOffset dx="4" dy="4"/>
<feGaussianBlur stdDeviation="2.5"/>
<feColorMatrix type="matrix" values="0 0 0 0 0 0 0 0 0 0 0 0 0 0 0 0 0 0 0.25 0"/>
<feBlend mode="normal" in2="BackgroundImageFix" result="effect1_dropShadow"/>
<feBlend mode="normal" in="SourceGraphic" in2="effect1_dropShadow" result="shape"/>
</filter>
<filter id="filter5_d" x="1020.57" y="818.638" width="400.63" height="365.831" filterUnits="userSpaceOnUse" color-interpolation-filters="sRGB">
<feFlood flood-opacity="0" result="BackgroundImageFix"/>
<feColorMatrix in="SourceAlpha" type="matrix" values="0 0 0 0 0 0 0 0 0 0 0 0 0 0 0 0 0 0 127 0"/>
<feOffset dx="4" dy="4"/>
<feGaussianBlur stdDeviation="2.5"/>
<feColorMatrix type="matrix" values="0 0 0 0 0 0 0 0 0 0 0 0 0 0 0 0 0 0 0.25 0"/>
<feBlend mode="normal" in2="BackgroundImageFix" result="effect1_dropShadow"/>
<feBlend mode="normal" in="SourceGraphic" in2="effect1_dropShadow" result="shape"/>
</filter>
<filter id="filter6_d" x="482.158" y="778.967" width="478.365" height="419.746" filterUnits="userSpaceOnUse" color-interpolation-filters="sRGB">
<feFlood flood-opacity="0" result="BackgroundImageFix"/>
<feColorMatrix in="SourceAlpha" type="matrix" values="0 0 0 0 0 0 0 0 0 0 0 0 0 0 0 0 0 0 127 0"/>
<feOffset dx="4" dy="4"/>
<feGaussianBlur stdDeviation="2.5"/>
<feColorMatrix type="matrix" values="0 0 0 0 0 0 0 0 0 0 0 0 0 0 0 0 0 0 0.25 0"/>
<feBlend mode="normal" in2="BackgroundImageFix" result="effect1_dropShadow"/>
<feBlend mode="normal" in="SourceGraphic" in2="effect1_dropShadow" result="shape"/>
</filter>
<filter id="filter7_d" x="47.584" y="806.584" width="399.817" height="364.493" filterUnits="userSpaceOnUse" color-interpolation-filters="sRGB">
<feFlood flood-opacity="0" result="BackgroundImageFix"/>
<feColorMatrix in="SourceAlpha" type="matrix" values="0 0 0 0 0 0 0 0 0 0 0 0 0 0 0 0 0 0 127 0"/>
<feOffset dx="4" dy="4"/>
<feGaussianBlur stdDeviation="2.5"/>
<feColorMatrix type="matrix" values="0 0 0 0 0 0 0 0 0 0 0 0 0 0 0 0 0 0 0.25 0"/>
<feBlend mode="normal" in2="BackgroundImageFix" result="effect1_dropShadow"/>
<feBlend mode="normal" in="SourceGraphic" in2="effect1_dropShadow" result="shape"/>
</filter>
<filter id="filter8_d" x="1500.57" y="420.638" width="400.63" height="365.831" filterUnits="userSpaceOnUse" color-interpolation-filters="sRGB">
<feFlood flood-opacity="0" result="BackgroundImageFix"/>
<feColorMatrix in="SourceAlpha" type="matrix" values="0 0 0 0 0 0 0 0 0 0 0 0 0 0 0 0 0 0 127 0"/>
<feOffset dx="4" dy="4"/>
<feGaussianBlur stdDeviation="2.5"/>
<feColorMatrix type="matrix" values="0 0 0 0 0 0 0 0 0 0 0 0 0 0 0 0 0 0 0.25 0"/>
<feBlend mode="normal" in2="BackgroundImageFix" result="effect1_dropShadow"/>
<feBlend mode="normal" in="SourceGraphic" in2="effect1_dropShadow" result="shape"/>
</filter>
<filter id="filter9_d" x="985.158" y="392.967" width="478.365" height="419.746" filterUnits="userSpaceOnUse" color-interpolation-filters="sRGB">
<feFlood flood-opacity="0" result="BackgroundImageFix"/>
<feColorMatrix in="SourceAlpha" type="matrix" values="0 0 0 0 0 0 0 0 0 0 0 0 0 0 0 0 0 0 127 0"/>
<feOffset dx="4" dy="4"/>
<feGaussianBlur stdDeviation="2.5"/>
<feColorMatrix type="matrix" values="0 0 0 0 0 0 0 0 0 0 0 0 0 0 0 0 0 0 0.25 0"/>
<feBlend mode="normal" in2="BackgroundImageFix" result="effect1_dropShadow"/>
<feBlend mode="normal" in="SourceGraphic" in2="effect1_dropShadow" result="shape"/>
</filter>
<filter id="filter10_d" x="531.584" y="420.584" width="399.817" height="364.493" filterUnits="userSpaceOnUse" color-interpolation-filters="sRGB">
<feFlood flood-opacity="0" result="BackgroundImageFix"/>
<feColorMatrix in="SourceAlpha" type="matrix" values="0 0 0 0 0 0 0 0 0 0 0 0 0 0 0 0 0 0 127 0"/>
<feOffset dx="4" dy="4"/>
<feGaussianBlur stdDeviation="2.5"/>
<feColorMatrix type="matrix" values="0 0 0 0 0 0 0 0 0 0 0 0 0 0 0 0 0 0 0.25 0"/>
<feBlend mode="normal" in2="BackgroundImageFix" result="effect1_dropShadow"/>
<feBlend mode="normal" in="SourceGraphic" in2="effect1_dropShadow" result="shape"/>
</filter>
<filter id="filter11_d" x="7.1582" y="387.967" width="478.365" height="419.746" filterUnits="userSpaceOnUse" color-interpolation-filters="sRGB">
<feFlood flood-opacity="0" result="BackgroundImageFix"/>
<feColorMatrix in="SourceAlpha" type="matrix" values="0 0 0 0 0 0 0 0 0 0 0 0 0 0 0 0 0 0 127 0"/>
<feOffset dx="4" dy="4"/>
<feGaussianBlur stdDeviation="2.5"/>
<feColorMatrix type="matrix" values="0 0 0 0 0 0 0 0 0 0 0 0 0 0 0 0 0 0 0.25 0"/>
<feBlend mode="normal" in2="BackgroundImageFix" result="effect1_dropShadow"/>
<feBlend mode="normal" in="SourceGraphic" in2="effect1_dropShadow" result="shape"/>
</filter>
<filter id="filter12_d" x="1469.13" y="0.732178" width="469.225" height="409.016" filterUnits="userSpaceOnUse" color-interpolation-filters="sRGB">
<feFlood flood-opacity="0" result="BackgroundImageFix"/>
<feColorMatrix in="SourceAlpha" type="matrix" values="0 0 0 0 0 0 0 0 0 0 0 0 0 0 0 0 0 0 127 0"/>
<feOffset dx="4" dy="4"/>
<feGaussianBlur stdDeviation="2.5"/>
<feColorMatrix type="matrix" values="0 0 0 0 0 0 0 0 0 0 0 0 0 0 0 0 0 0 0.25 0"/>
<feBlend mode="normal" in2="BackgroundImageFix" result="effect1_dropShadow"/>
<feBlend mode="normal" in="SourceGraphic" in2="effect1_dropShadow" result="shape"/>
</filter>
<filter id="filter13_d" x="1026.58" y="27.5844" width="399.817" height="364.493" filterUnits="userSpaceOnUse" color-interpolation-filters="sRGB">
<feFlood flood-opacity="0" result="BackgroundImageFix"/>
<feColorMatrix in="SourceAlpha" type="matrix" values="0 0 0 0 0 0 0 0 0 0 0 0 0 0 0 0 0 0 127 0"/>
<feOffset dx="4" dy="4"/>
<feGaussianBlur stdDeviation="2.5"/>
<feColorMatrix type="matrix" values="0 0 0 0 0 0 0 0 0 0 0 0 0 0 0 0 0 0 0.25 0"/>
<feBlend mode="normal" in2="BackgroundImageFix" result="effect1_dropShadow"/>
<feBlend mode="normal" in="SourceGraphic" in2="effect1_dropShadow" result="shape"/>
</filter>
<filter id="filter14_d" x="489.158" y="6.96661" width="478.365" height="419.746" filterUnits="userSpaceOnUse" color-interpolation-filters="sRGB">
<feFlood flood-opacity="0" result="BackgroundImageFix"/>
<feColorMatrix in="SourceAlpha" type="matrix" values="0 0 0 0 0 0 0 0 0 0 0 0 0 0 0 0 0 0 127 0"/>
<feOffset dx="4" dy="4"/>
<feGaussianBlur stdDeviation="2.5"/>
<feColorMatrix type="matrix" values="0 0 0 0 0 0 0 0 0 0 0 0 0 0 0 0 0 0 0.25 0"/>
<feBlend mode="normal" in2="BackgroundImageFix" result="effect1_dropShadow"/>
<feBlend mode="normal" in="SourceGraphic" in2="effect1_dropShadow" result="shape"/>
</filter>
<filter id="filter15_d" x="41.584" y="31.5844" width="399.817" height="364.493" filterUnits="userSpaceOnUse" color-interpolation-filters="sRGB">
<feFlood flood-opacity="0" result="BackgroundImageFix"/>
<feColorMatrix in="SourceAlpha" type="matrix" values="0 0 0 0 0 0 0 0 0 0 0 0 0 0 0 0 0 0 127 0"/>
<feOffset dx="4" dy="4"/>
<feGaussianBlur stdDeviation="2.5"/>
<feColorMatrix type="matrix" values="0 0 0 0 0 0 0 0 0 0 0 0 0 0 0 0 0 0 0.25 0"/>
<feBlend mode="normal" in2="BackgroundImageFix" result="effect1_dropShadow"/>
<feBlend mode="normal" in="SourceGraphic" in2="effect1_dropShadow" result="shape"/>
</filter>
</defs>
</svg>
